<svg width="122" height="36" viewBox="0 0 122 36" fill="none" xmlns="http://www.w3.org/2000/svg">
<path d="M27.6932 1.32356C28.5258 1.25923 28.4499 1.24826 28.7702 1.97309C28.3426 2.92499 25.9112 5.41161 25.1445 6.41242C23.8137 8.14954 22.4429 10.0034 21.1097 11.7396L17.9588 15.8701C17.5808 16.3674 17.1074 16.8877 16.7669 17.401C14.7527 20.437 12.8018 23.5304 10.7791 26.5602C10.1021 27.5742 9.3462 29.3196 8.58996 30.1724C8.56791 30.1817 8.54575 30.1907 8.52348 30.1994C7.45532 30.6169 5.15049 30.7113 4.02272 30.2172C3.29252 29.3344 2.42292 26.9779 2.00587 25.8615C1.41529 24.1228 0.433063 22.0108 0.859618 20.1365C2.00244 18.9476 3.45549 18.3204 5.07416 18.1202C5.2204 18.1844 5.56184 18.3981 5.71505 18.4888C6.20988 19.7262 6.74923 21.1967 7.33433 22.404C7.37669 22.4913 7.66608 22.7587 7.75276 22.8372C8.5345 22.3064 9.89329 19.9153 10.4973 19.0331L14.9188 12.5715C16.2014 10.6607 17.5086 8.58687 18.9567 6.79463C19.9513 5.56364 21.3958 3.61759 22.7251 2.79368C24.0455 1.97526 26.1593 1.49474 27.6932 1.32356Z" fill="#034B94"/>
<path d="M27.652 11.4537C28.8196 11.4068 30.2406 11.4358 31.4354 11.4258L33.2796 22.146C33.3331 22.4439 33.4906 23.5747 33.3393 23.7904C32.9215 23.9329 30.5252 23.8763 30.0456 23.8019C29.9865 23.1148 29.9127 22.4355 29.7118 21.7736C29.6595 21.6012 29.646 21.4197 29.6352 21.2405L25.7807 21.2408L25.0116 21.2519C24.434 21.9691 24.2025 22.9331 23.6632 23.6018C23.3334 24.0109 20.201 23.9634 19.9492 23.6687C20.1603 22.9926 20.8348 22.0018 21.2186 21.3648L23.5754 17.4693C24.727 15.5406 25.7947 13.4219 27.1452 11.6223C27.2617 11.4672 27.4687 11.4652 27.652 11.4537ZM26.3712 18.6727C26.4804 18.69 26.8813 18.7598 26.9702 18.7585C27.5978 18.7617 28.6906 18.7851 29.3051 18.7392C29.3092 18.2767 28.8976 14.6178 28.7573 14.4304C28.1871 15.5271 27.4672 16.626 26.9206 17.7553C26.7872 18.031 26.53 18.3557 26.3712 18.6727Z" fill="#034B94"/>
<path d="M59.4694 14.405C61.1482 14.3747 62.6255 14.2704 64.0981 15.2765C64.8409 15.7797 65.3485 16.5589 65.5058 17.4384C65.5892 17.9031 65.5576 18.2652 65.5743 18.7122C65.6946 21.9365 63.643 23.5461 60.7431 24.056C59.5611 24.2311 57.7287 24.0912 56.695 23.4937C54.38 22.1554 54.1182 19.0933 55.4038 16.9459C56.4435 15.2094 57.6781 14.8882 59.4694 14.405ZM58.3284 20.8449C58.8856 21.5672 59.2847 21.8279 60.2308 21.6884C60.6698 21.464 61.141 21.3714 61.4157 20.9676C62.3229 19.6358 62.5588 18.1136 61.5157 16.8372C61.0707 16.7262 60.7354 16.6704 60.2737 16.7071C58.2823 17.1225 58.13 19.2104 58.3284 20.8449Z" fill="#034B94"/>
<path d="M83.6137 10.4483C83.7859 10.4339 83.8442 10.4188 83.992 10.5019C84.2874 11.0825 83.3278 14.4912 83.2396 15.4577C83.9336 14.9826 84.568 14.5566 85.452 14.4241C87.1135 14.1753 88.7921 14.71 89.0298 16.6099C89.2526 18.3898 88.866 20.3458 88.4055 22.0753C88.2965 22.4861 88.3668 23.293 88.1238 23.6856C87.8485 23.9922 84.9368 23.909 84.767 23.7655C84.6264 23.4854 85.6772 18.8777 85.7177 17.9628C85.6319 17.5951 85.5706 17.5623 85.3222 17.2583C81.4537 16.1575 82.237 22.8472 81.2416 23.7332C80.8091 23.9129 78.3989 23.9991 78.132 23.6924C78.0766 23.1295 78.3632 22.1758 78.4758 21.5731C78.7885 19.8971 79.1698 18.3415 79.467 16.647C79.6415 15.6521 79.9912 14.7749 80.192 13.6648C80.3159 12.9778 80.5691 11.3657 80.9146 10.6926C81.2815 10.4231 83.0424 10.4785 83.6137 10.4483Z" fill="#034B94"/>
<path d="M115.315 10.4462C115.451 10.4345 115.843 10.3723 115.849 10.535C115.886 11.4809 114.293 17.4003 114.464 17.8347C114.591 17.8036 114.668 17.7584 114.75 17.6499C115.527 16.6222 116.268 15.6267 117.103 14.6426C118.19 14.5391 119.624 14.6131 120.734 14.6635C120.333 15.3578 119.872 15.7498 119.433 16.3611C119.193 16.6946 117.183 18.9995 117.211 19.0706C117.783 20.5115 118.664 21.8869 119.282 23.3276C119.58 24.0203 118.525 23.8663 118.083 23.864C117.682 23.856 116.321 23.9448 115.956 23.7875C115.316 23.5119 114.613 19.7253 113.906 20.009C113.6 20.4413 113.642 21.3533 113.496 21.9519C113.315 22.6867 113.241 23.1437 112.942 23.8719C112.326 23.8865 110.25 23.8832 109.712 23.8068C109.742 22.8998 110.065 21.8342 110.268 20.9308L111.351 16.1067C111.588 15.0498 112.214 11.2628 112.624 10.5636C113.198 10.452 114.618 10.4874 115.315 10.4462Z" fill="#034B94"/>
<path d="M73.5483 11.2649C74.9035 11.085 78.1149 11.3068 79.239 11.941C79.1973 12.141 78.5379 14.1653 78.445 14.3713C78.0887 14.3361 77.5157 14.1541 77.1582 14.045C75.8143 13.6288 74.807 13.6584 73.4434 14.091C71.3096 14.7682 70.2874 17.3606 70.8408 19.4044C70.9307 19.7356 71.2673 20.2511 71.4103 20.6485C71.7403 20.8313 72.0024 21.0099 72.3569 21.1775C73.7562 21.8394 75.5778 21.5038 76.9885 20.9607C77.0302 20.9711 77.0713 21.0148 77.1082 21.0456C77.2434 21.6946 77.169 23.0761 76.7978 23.7033C76.7234 23.7201 76.6483 23.7361 76.5739 23.7514C74.1904 24.2355 71.7761 24.4377 69.6148 23.101C66.6441 21.2639 66.5553 16.8232 68.3668 14.1586C69.7078 12.1856 71.3305 11.7056 73.5483 11.2649Z" fill="#034B94"/>
<path d="M94.807 14.4036C95.6285 14.3894 96.3952 14.3425 97.2244 14.4738C99.5834 14.8473 100.557 16.9654 100.279 19.1668C100.246 19.4251 100.115 19.7472 100.055 20.0337C99.718 20.1955 94.3483 20.0907 93.4262 20.1594C93.6347 20.7521 93.8289 21.2489 94.4246 21.5472C95.8501 22.2616 97.4371 21.6441 98.7929 21.2038C98.8143 21.2358 98.8513 21.334 98.8679 21.3739C98.7601 21.8 98.473 23.7377 98.0078 23.8011C95.9919 24.0763 94.2512 24.5014 92.3474 23.4386C89.9229 22.0849 89.8794 19.0236 91.1161 16.8578C91.9745 15.3795 93.21 14.8073 94.807 14.4036ZM95.2211 18.292C95.6619 18.298 97.2596 18.3873 97.3924 18.1433C97.7397 17.5068 96.699 16.5292 96.0235 16.5306C94.7171 16.7787 94.1947 16.9435 93.8182 18.2904C94.2638 18.2905 94.7814 18.2775 95.2211 18.292Z" fill="#034B94"/>
<path d="M39.1353 14.5955C39.1979 14.575 39.2742 14.5851 39.3417 14.5884C39.7642 15.1181 39.2297 16.0454 39.1373 16.5958C38.9898 17.4735 38.8418 18.3164 38.6032 19.1762C38.4481 19.7355 38.3092 20.5915 38.7467 21.0532C39.0256 21.3476 39.8461 21.2717 40.2395 21.2702C40.8099 20.8861 41.1884 20.8096 41.4657 20.1155C41.9448 18.9161 42.2626 17.6758 42.5124 16.411C42.603 15.9518 42.7087 15.2245 42.876 14.8212C43.2855 14.4067 45.0645 14.7152 45.684 14.5885C45.8169 14.5614 45.9195 14.6604 46.0021 14.7441C46.1842 15.346 45.8213 16.9619 45.6241 17.574C45.3239 18.5057 45.1865 19.4274 44.9287 20.3649C44.6873 21.151 44.7495 22.6814 44.3935 23.531C44.1797 24.0411 43.4579 23.843 43.0088 23.8513C42.4552 23.8614 41.908 23.9386 41.3811 23.8038C41.1587 23.736 41.3571 23.1349 41.2966 22.9001C41.1571 22.8508 41.026 22.895 40.9183 22.9937C38.8446 24.8606 35.3433 24.514 35.0537 21.3349C34.9563 20.2665 35.6896 15.418 36.2648 14.7247C36.7594 14.5197 38.4418 14.634 39.1353 14.5955Z" fill="#034B94"/>
<path d="M52.9927 11.6787L53.1048 11.6945C53.3969 12.2717 52.8025 13.7485 52.796 14.3556C52.7909 14.8188 54.1973 14.412 54.5833 14.6793C54.7561 15.0376 54.6061 16.391 54.5749 16.8611C54.0856 16.8925 52.4538 16.7921 52.1705 16.9621C52.1105 17.2298 51.8941 17.9486 51.8761 18.1599C51.8192 18.8294 51.6169 19.3491 51.3823 19.8469C51.3003 20.0209 51.3549 21.2636 51.3564 21.5382C52.1815 22.0529 52.3737 22.0255 53.2527 21.6917C53.2224 24.2735 53.3091 24.1065 50.6402 24.1189C50.2121 24.0959 49.7202 23.9628 49.34 23.7657C48.7568 23.4659 48.32 22.9447 48.1289 22.3203C47.7536 21.1324 48.2059 19.5539 48.5199 18.4027C48.6853 17.7963 48.4695 17.6234 48.8528 16.8933C48.3369 16.8644 47.678 16.8781 47.1514 16.8744C47.1962 16.2283 47.3646 15.4019 47.4624 14.7332C47.9882 14.5943 48.8551 14.6209 49.1546 14.4986C49.6011 14.3162 49.4841 12.8349 50.1143 12.4904C50.7524 12.1416 52.4999 12.0387 52.9927 11.6787Z" fill="#034B94"/>
<path d="M106.116 14.4088C106.796 14.3987 109.433 14.2779 109.979 14.9688C110.23 15.2871 109.687 16.6609 109.606 17.2387C106.879 16.2218 104.523 16.907 104.605 20.2039C106.287 22.7238 108.465 21.0832 108.937 21.303C108.978 21.6327 108.819 22.3457 108.715 22.6648C108.572 23.1362 108.586 23.2525 108.383 23.7666C108.268 23.8067 108.151 23.8408 108.031 23.8687C106.544 24.2106 104.557 24.3242 103.206 23.4835C102.236 22.8679 101.55 21.8981 101.294 20.7835C100.829 18.7662 101.765 16.6542 103.415 15.4517C104.295 14.8102 105.077 14.6423 106.116 14.4088Z" fill="#034B94"/>
<path d="M95.7581 28.7455C97.4541 27.8854 98.3846 28.642 98.8736 30.2884C98.9713 30.6274 99.0094 30.9745 98.9636 31.3257C98.0962 33.1167 97.6739 33.8904 95.6116 32.9417C95.5722 33.902 96.0607 35.1706 94.6149 34.9978C94.3653 34.968 94.2796 35.0202 94.0943 34.8195C93.9573 34.1594 94.0151 29.3891 94.1181 28.6562C94.768 28.6197 95.1243 28.6611 95.7581 28.7455ZM95.5603 29.9409C95.6044 30.9033 95.2857 32.128 96.4962 32.3069C97.7025 31.9459 97.4523 29.8186 96.486 29.2744C95.9654 29.4447 95.9148 29.5202 95.5603 29.9409Z" fill="#034B94"/>
<path d="M83.5636 26.4858C84.0443 26.4685 87.6227 26.3901 87.83 26.5453C88.7373 28.2088 85.9511 27.8252 85.0713 27.8284C85.0552 28.1947 85.0743 28.6175 85.0814 28.988C85.751 29.0627 86.8882 29.0001 87.5935 28.9844C87.6316 29.336 87.6215 30.0093 87.6257 30.3862C86.9674 30.4669 85.7331 30.3014 85.1076 30.517C85.0784 30.5271 85.0737 30.7179 85.0689 30.7745C85.0695 31.1567 85.0749 31.5389 85.085 31.921C85.6354 31.917 87.3993 31.8763 87.8336 32.0005C88.0623 32.2622 87.998 32.8195 87.9956 33.1859C87.4476 33.2376 83.7727 33.2676 83.4546 33.102C83.2216 32.5444 83.3652 30.4085 83.3336 29.6598C83.2973 28.7976 83.3348 27.7411 83.3872 26.876C83.3992 26.6803 83.4403 26.6237 83.5636 26.4858Z" fill="#034B94"/>
<path d="M59.8631 28.4987C61.4762 28.4022 61.8908 31.5862 60.8865 32.6414C59.9256 33.6511 59.3222 33.448 58.3256 32.729C58.2934 33.0867 58.3019 33.6585 58.2979 34.0314C58.3606 34.9702 58.1719 35.0926 57.2522 34.8571C57.229 34.0967 57.103 29.0948 57.3849 28.7993C57.465 28.7153 57.5926 28.6586 57.7083 28.654C58.0141 28.6417 58.2006 28.7974 58.4142 28.9861C59.0373 28.5682 59.1129 28.6016 59.8631 28.4987ZM59.6498 32.5208C59.8148 32.3938 60.0495 32.2228 60.1996 32.0893C60.4325 31.2404 60.7667 29.7011 59.6266 29.2666C59.5221 29.2268 59.057 29.2531 58.9186 29.2591C57.9287 30.1272 58.0225 32.4427 59.4813 32.6103C59.5174 32.5917 59.623 32.5406 59.6498 32.5208Z" fill="#034B94"/>
<path d="M51.2052 26.4151C51.3749 26.4131 51.6669 26.4692 51.7288 26.6108C52.0615 27.3706 54.4541 32.5371 54.3886 32.9629C54.1945 33.3075 53.7858 33.299 53.5587 33.0203C53.2238 32.6096 53.082 32.0532 52.8322 31.5748C52.348 31.5385 51.8212 31.5467 51.3317 31.5452C50.8161 31.5412 50.2744 31.5562 49.7566 31.5624C49.1977 32.0407 49.1634 33.1066 48.6435 33.2258C47.497 33.4885 48.4044 31.8619 48.4885 31.6615C48.8165 30.8699 49.1563 30.0831 49.5078 29.3015C49.8634 28.4996 50.1309 27.6843 50.5574 26.9128C50.7709 26.5264 50.7766 26.5631 51.2052 26.4151ZM51.325 30.625C51.5782 30.6448 51.8906 30.6908 52.1239 30.6063C52.1982 30.5376 52.2696 30.5021 52.2515 30.3974C52.121 29.6425 51.6358 28.7511 51.1926 28.1651C50.9243 28.4984 50.0589 30.1875 50.1694 30.5704C50.4033 30.6886 51.0411 30.6379 51.325 30.625Z" fill="#034B94"/>
<path d="M111.452 28.4321C112.28 28.3622 112.803 28.3989 113.591 28.6538C113.704 28.856 113.879 29.1132 114.007 29.3133C114.059 30.1243 114.031 31.1107 114.065 31.9616C115.126 32.5718 114.684 33.5015 113.62 33.3472C112.662 33.2082 112.896 32.5757 111.847 33.3239C111.371 33.3517 111.068 33.3383 110.604 33.2395C110.424 33.1747 110.259 33.0753 110.117 32.9467C109.534 32.413 109.526 31.4314 110.07 30.8594C110.746 30.146 111.488 30.2562 112.389 30.2226C112.619 28.7034 111.521 29.4597 110.881 29.9168C110.497 29.6969 110.091 29.5675 110.178 29.0669C110.444 28.6669 111.009 28.5499 111.452 28.4321ZM111.654 32.2992C112.497 32.2565 112.778 31.1755 112.434 30.8408L112.329 30.8414C111.756 31.0494 110.886 31.4174 111.549 32.2224C111.567 32.2442 111.628 32.2828 111.654 32.2992Z" fill="#034B94"/>
<path d="M75.9305 28.4276C77.3239 28.3692 78.0137 28.9089 78.3896 30.2536C78.7262 31.4591 78.05 33.002 76.7788 33.3247C74.4025 33.4317 73.6228 31.774 74.3811 29.5885C74.5991 28.9598 75.3289 28.6311 75.9305 28.4276ZM76.5864 32.5888C77.1047 32.2395 77.3072 31.8919 77.4275 31.2725C77.5818 30.4773 77.449 29.2029 76.3624 29.2502C76.1664 29.258 75.9686 29.2542 75.7709 29.2628C75.5993 29.3708 75.4623 29.453 75.3533 29.6325C74.8046 30.5382 74.8434 32.3198 76.114 32.5857C76.2349 32.6109 76.4702 32.6339 76.5864 32.5888Z" fill="#034B94"/>
<path d="M99.2999 29.5106C99.8521 28.8823 100.321 28.4307 101.205 28.3955C102.891 28.3284 103.492 29.2563 103.59 30.7421C103.598 30.8906 103.605 31.1235 103.625 31.2637C103.221 31.3494 101.098 31.3196 100.561 31.3375C101.065 32.7767 101.727 32.3588 102.622 31.609C102.84 31.7317 103.283 31.9198 103.374 32.1059C103.392 32.3225 103.193 32.5261 103.098 32.8036C102.586 33.123 102.371 33.2383 101.746 33.3292C100.605 33.4954 99.3451 32.8845 99.17 31.6425C99.1265 31.1453 99.1563 30.6372 99.1736 30.1378L99.2999 29.5106ZM101.255 30.3908C101.689 30.4055 102.038 30.4951 102.146 29.9966C102.079 29.6686 101.804 29.4086 101.475 29.3657C101.074 29.4528 100.515 29.6861 100.618 30.1967C100.837 30.4624 100.926 30.4255 101.255 30.3908Z" fill="#034B94"/>
<path d="M117.616 28.4221C119.267 28.3678 119.59 28.835 119.523 30.4291C119.484 31.3504 119.593 32.2779 119.459 33.213C119.288 33.2176 118.478 33.2625 118.381 33.1452C117.597 32.1969 119.139 28.8578 116.936 29.5602C116.289 30.5052 116.778 32.0979 116.479 33.1458C116.437 33.2931 115.304 33.2024 115.156 33.195C115.033 32.3998 115.104 29.5631 115.156 28.7033C115.482 28.6507 116.069 28.5186 116.357 28.6327C116.426 28.6597 116.583 28.7882 116.736 28.8563C117.027 28.7063 117.32 28.5616 117.616 28.4221Z" fill="#034B94"/>
<path d="M63.3233 28.4307C64.3991 28.3652 64.675 28.3245 65.5006 28.9903C65.693 29.8689 65.5298 31.2367 65.6996 32.1759C65.7121 32.4027 65.8247 33.1593 65.6513 33.2994C65.3618 33.534 64.8721 33.0912 64.6916 32.904C63.704 33.1285 63.8523 33.39 62.8134 33.3285C62.5215 33.1623 62.4262 33.0939 62.1706 32.8755C62.1152 32.8107 62.0628 32.7434 62.0139 32.6737C61.728 32.2611 61.8823 31.5618 61.9657 31.103C62.204 30.8141 62.5191 30.5506 62.8009 30.2999C63.4734 30.1948 64.4498 30.4368 64.6767 29.647C64.6613 29.5417 64.6613 29.4243 64.557 29.3662C64.2842 29.2122 63.7671 29.1601 63.4609 29.2417C63.085 29.3419 62.7925 29.7753 62.3624 29.8055L62.2534 29.7086C61.9174 28.822 62.6722 28.6441 63.3233 28.4307ZM63.452 32.6863C63.7331 32.6723 64.0411 32.3835 64.3664 32.2496C64.5582 31.916 65.0175 30.9742 64.5546 30.7199L64.2651 30.7476C63.9107 30.8228 63.4865 30.884 63.2 31.0997C62.366 31.7274 62.7842 32.2932 63.452 32.6863Z" fill="#034B94"/>
<path d="M89.724 28.6162C90.2822 28.4742 90.7206 29.2527 90.9899 29.6388C91.3181 29.2828 91.7619 28.6941 92.2968 28.6815C92.4743 28.6773 93.1534 28.6524 93.2869 28.7168L93.3077 28.8168C93.054 29.339 92.3308 30.3314 91.9102 30.7269C92.4005 31.3959 93.331 32.3917 93.5681 33.1276C93.1606 33.2083 92.6882 33.2188 92.2742 33.2042C91.8501 33.1143 91.3252 32.3033 91.0453 31.9303C90.6807 32.4237 90.2023 33.2753 89.528 33.2726C89.2766 33.2716 88.9877 33.2426 88.8018 33.0598C88.6106 32.4847 89.5935 31.7323 89.8634 31.2199C89.9527 31.05 90.0183 30.7962 90.0671 30.6108C89.8217 30.3064 88.8263 29.0602 88.7893 28.7587C88.8894 28.708 89.5387 28.6465 89.724 28.6162Z" fill="#034B94"/>
<path d="M106.75 28.3066C106.803 28.771 106.98 29.467 106.689 29.8758C106.482 30.1561 105.93 30.0316 105.796 30.3826C105.489 31.1862 105.947 32.3471 105.611 33.1031C105.55 33.2411 104.444 33.2816 104.26 33.1467C104.156 32.984 104.175 32.7511 104.171 32.5519C104.264 32.1245 104.188 30.0789 104.185 29.5124L104.224 28.6137C104.942 28.6527 105.075 28.5248 105.586 28.9306L105.607 28.9475C106.046 28.7298 106.336 28.566 106.75 28.3066Z" fill="#034B94"/>
<path d="M80.3298 26.4221C80.6598 26.3922 81.0172 26.403 81.131 26.775C81.0059 27.2494 80.3673 27.17 80.2827 27.6269C80.2446 27.8338 80.2857 28.338 80.3935 28.5156C80.5347 28.6186 80.8266 28.5627 81.0417 28.5716C81.0989 28.7963 81.0941 28.849 81.0715 29.0721C80.9261 29.2123 80.5306 29.3017 80.3185 29.3644C80.3417 29.9583 80.4442 32.5565 80.2667 32.9853C80.0498 33.1661 79.8532 33.2871 79.5745 33.163C79.0288 32.7221 79.4625 30.1908 79.2581 29.4009C79.0568 29.204 79.0413 29.3006 78.7244 29.1885C78.6249 29.0333 78.6499 29.0946 78.6511 28.8931C78.7983 28.6514 78.9263 28.6439 79.2123 28.5194C79.4351 28.319 79.3874 27.1412 79.4255 26.7142C79.7341 26.5333 79.9813 26.4737 80.3298 26.4221Z" fill="#034B94"/>
<path d="M108.569 28.5085C108.728 28.4889 108.762 28.4888 108.921 28.5078C109.063 28.8633 109.064 32.948 108.868 33.1563C108.6 33.2508 108.219 33.2158 107.927 33.2071C107.823 33.2006 107.75 33.1718 107.651 33.1408C107.43 32.8962 107.496 29.2662 107.683 28.7896C107.754 28.6084 108.379 28.5492 108.569 28.5085Z" fill="#034B94"/>
<path d="M70.278 27.2607C70.4567 27.1313 70.6152 26.9799 70.8284 26.9935C71.2907 27.3365 70.6563 28.2803 71.2746 28.6905C71.3229 28.9406 71.3199 29.0139 71.3086 29.2659C71.2609 29.2849 71.0983 29.3373 71.0899 29.371C70.9208 30.0612 70.9482 31.6106 71.0977 32.2957C71.1263 32.4283 71.6374 32.6015 71.7172 32.9121C71.4712 33.4817 70.6682 33.5178 70.4108 33.1656C69.8938 32.4571 70.1225 30.2431 70.1076 29.3756C69.8741 29.3218 69.6757 29.3016 69.5119 29.132L69.4404 28.8238C69.6227 28.6324 69.7716 28.5517 69.9962 28.4127C70.1297 28.0443 70.1994 27.6452 70.278 27.2607Z" fill="#034B94"/>
<path d="M68.0894 29.4166C66.9207 30.8128 67.9876 32.5559 67.2811 33.1974C67.072 33.2453 66.8158 33.2132 66.7616 33.0068C66.5775 32.3007 66.5656 29.2878 66.7699 28.7463C67.0225 28.6381 67.564 28.9009 67.9596 28.7568C68.3736 28.6058 68.6994 28.2126 69.0503 28.6039C69.1265 28.924 69.1498 28.8738 68.9597 29.1998C68.8883 29.2406 68.2181 29.3873 68.0894 29.4166Z" fill="#034B94"/>
<path d="M108.891 26.3311C109.036 26.5751 108.993 27.4314 108.989 27.7428C108.53 27.8024 108.185 27.7994 107.727 27.7711C107.444 27.6126 107.616 26.8255 107.649 26.5302C108.114 26.4757 108.434 26.4341 108.891 26.3311Z" fill="#034B94"/>
<path d="M103.589 30.7423C103.62 30.8356 103.658 30.9079 103.7 30.9958C103.8 30.9116 103.929 30.8528 104.046 30.7931C104.23 30.4471 104.056 30.0439 104.185 29.5127C104.188 30.0792 104.264 32.1248 104.171 32.5521C104.049 32.3912 104.157 31.7523 104.068 31.4232C104.056 31.4758 104.046 31.6224 104.041 31.684C104.029 31.5624 104.004 31.5027 103.965 31.3883C103.787 31.2461 103.868 31.2812 103.625 31.2638C103.604 31.1237 103.598 30.8908 103.589 30.7423Z" fill="#034B94"/>
<path d="M89.1367 16.542L89.2666 16.6059C89.3833 17.0935 89.4685 17.5969 89.3339 18.1119C89.2946 18.2631 89.3035 18.2632 89.3482 18.4293L89.2785 18.5563L89.1939 18.5547C89.1337 18.2161 89.1737 17.0648 89.1367 16.542Z" fill="#034B94"/>
<path d="M71.2744 28.6904C71.5538 28.6236 71.6908 28.5702 71.9356 28.7185C72.0059 28.895 72.0012 28.8235 71.9291 29.0195C71.7534 29.2001 71.5604 29.2656 71.3084 29.2658C71.3197 29.0138 71.3227 28.9405 71.2744 28.6904Z" fill="#034B94"/>
<path d="M98.874 30.2883C98.8746 30.1193 98.8675 30.0489 98.9247 29.8911C99.0575 29.9184 99.0772 30.0023 99.1737 30.1377C99.1564 30.6371 99.1266 31.1452 99.1701 31.6424L98.964 31.3257C99.0099 30.9744 98.9717 30.6273 98.874 30.2883Z" fill="#034B94"/>
<path d="M69.0505 28.604C69.1822 28.7194 69.2644 28.8151 69.4407 28.8236L69.5122 29.1318C69.3043 29.0561 69.1702 29.1275 68.96 29.1998C69.15 28.8738 69.1268 28.9241 69.0505 28.604Z" fill="#034B94"/>
</svg>
