<svg width="112" height="58" viewBox="0 0 112 58" fill="none" xmlns="http://www.w3.org/2000/svg">
<path d="M5.29204 3.79096C5.29204 2.75198 5.79105 2.24925 6.63638 2.24925C6.83658 2.22804 7.0387 2.26401 7.21929 2.35299C7.39989 2.44197 7.55156 2.58031 7.65673 2.75198C7.87668 3.21613 7.97289 3.72925 7.93603 4.24155H11.1721V3.89895C11.1721 1.69811 9.96557 0 6.60286 0C3.13961 0 1.91816 1.91782 1.91816 4.18569C1.91816 9.53325 8.06637 7.8128 8.06637 10.8888C8.06637 11.708 7.69397 12.5906 6.54328 12.5906C5.39259 12.5906 5.07978 11.7713 5.07978 10.6877V10.2036H1.8623V11.1345C1.8623 14.1137 4.12645 14.8585 6.56935 14.8585C9.65276 14.8585 11.4514 13.5551 11.4514 10.3153C11.4365 5.28053 5.29204 6.7701 5.29204 3.79096Z" fill="#221F1F"/>
<path d="M19.0741 5.61941H16.3891V0.279297H13.0376V14.568H16.3891V8.45704H19.0741V14.568H22.4256V0.279297H19.0741V5.61941Z" fill="#221F1F"/>
<path d="M29.244 0C24.82 0 24.2056 2.8786 24.2056 7.42551C24.2056 11.9724 24.82 14.8361 29.244 14.8361C34.0107 14.8361 34.2602 11.3878 34.2602 7.42551C34.2602 3.46325 34.0107 0 29.244 0ZM29.2217 12.6018C27.9034 12.6018 27.7023 11.3394 27.7023 7.41806C27.7023 3.49677 27.8587 2.23808 29.2217 2.23808C30.5847 2.23808 30.7857 3.50049 30.7857 7.42551C30.7857 11.3505 30.5847 12.6018 29.2217 12.6018Z" fill="#221F1F"/>
<path d="M45.7785 10.4493H45.7375L44.1362 0.279297H41.0118L39.5223 10.4493H39.485L38.2226 0.279297H34.8711L37.4071 14.568H41.131L42.5126 4.4203H42.5536L44.0133 14.568H47.741L50.2211 0.279297H46.9776L45.7785 10.4493Z" fill="#221F1F"/>
<path d="M61.285 12.5425L57.3451 0.0859375H55.647V14.7657H56.8796V2.54745L60.6855 14.7843H61.8175L65.6159 2.53628V14.7657H66.8485V0.0859375H65.1244L61.285 12.5425Z" fill="#221F1F"/>
<path d="M69.9872 7.68647H75.5731V6.55067H69.9872V1.22174H75.9753V0.0859375H68.7583V14.7508H76.154V13.615H69.9872V7.68647Z" fill="#221F1F"/>
<path d="M80.165 1.23687H83.9895V14.7659H85.1998V1.23687H89.0056V0.101074H80.165V1.23687Z" fill="#221F1F"/>
<path d="M96.979 6.34958H91.1063V0.0859375H89.8774V14.7657H91.1063V7.50028H96.979V14.7657H98.2116V0.0859375H96.979V6.34958Z" fill="#221F1F"/>
<path d="M100.692 13.615V7.68647H106.281V6.55067H100.692V1.22174H106.68V0.0859375H99.459V14.7508H106.858V13.615H100.692Z" fill="#221F1F"/>
<path d="M111.718 18.3774C111.723 18.5838 111.686 18.7892 111.61 18.9812C111.534 19.1731 111.42 19.3477 111.274 19.4945C111.137 19.64 110.97 19.7554 110.786 19.8336C110.601 19.9118 110.402 19.951 110.202 19.9489C109.999 19.9489 109.799 19.9087 109.612 19.8306C109.425 19.7525 109.255 19.6381 109.113 19.494C108.971 19.3499 108.858 19.179 108.783 18.9911C108.707 18.8033 108.669 18.6023 108.671 18.3997C108.666 18.1932 108.703 17.9878 108.779 17.7958C108.855 17.6038 108.969 17.4292 109.115 17.2825C109.255 17.1368 109.424 17.0214 109.611 16.9433C109.798 16.8651 109.999 16.826 110.202 16.8282C110.402 16.8261 110.601 16.8653 110.786 16.9435C110.97 17.0216 111.137 17.1371 111.274 17.2825C111.417 17.4268 111.529 17.5978 111.605 17.7857C111.681 17.9736 111.72 18.1747 111.718 18.3774ZM111.476 18.3774C111.479 18.0279 111.345 17.6911 111.103 17.4389C110.992 17.3173 110.857 17.2195 110.706 17.1517C110.556 17.0838 110.393 17.0473 110.228 17.0442C110.054 17.0414 109.88 17.0754 109.72 17.1441C109.56 17.2127 109.415 17.3145 109.297 17.4427C109.176 17.568 109.08 17.716 109.016 17.8784C108.952 18.0407 108.921 18.2141 108.925 18.3885C108.921 18.5614 108.952 18.7333 109.016 18.8939C109.08 19.0545 109.175 19.2005 109.297 19.3232C109.524 19.5626 109.836 19.7022 110.166 19.7113C110.495 19.7204 110.815 19.5982 111.055 19.3717L111.103 19.3232C111.226 19.1987 111.322 19.0507 111.386 18.8882C111.45 18.7257 111.48 18.552 111.476 18.3774ZM111.051 17.9715C111.055 18.0489 111.04 18.126 111.009 18.1971C110.978 18.2681 110.931 18.331 110.872 18.3811C110.757 18.4801 110.611 18.5344 110.459 18.5338L111.017 19.2786H110.671L110.116 18.5338H109.8V19.2786H109.517V17.4166H110.418C110.587 17.4062 110.753 17.4608 110.883 17.5693C110.94 17.6194 110.984 17.6817 111.013 17.7513C111.042 17.8209 111.055 17.8961 111.051 17.9715ZM110.764 17.9715C110.764 17.7853 110.619 17.6922 110.34 17.6922H109.8V18.288H110.358C110.634 18.288 110.764 18.1874 110.764 17.9715Z" fill="#221F1F"/>
<path d="M106.013 17.7145H2.16737C1.85554 17.7095 1.5544 17.8281 1.32973 18.0444C1.10506 18.2607 0.975108 18.5571 0.968262 18.8689V35.7346C0.970688 35.8896 1.00363 36.0427 1.06521 36.1849C1.12678 36.3272 1.21579 36.456 1.32714 36.5639C1.43849 36.6718 1.57001 36.7567 1.71417 36.8138C1.85834 36.8708 2.01234 36.8989 2.16737 36.8965H106.013C106.168 36.8994 106.323 36.8717 106.467 36.8148C106.612 36.758 106.744 36.6732 106.855 36.5652C106.967 36.4573 107.057 36.3284 107.118 36.1858C107.18 36.0433 107.213 35.8899 107.216 35.7346V18.8838C107.215 18.7287 107.183 18.5752 107.123 18.4323C107.062 18.2894 106.974 18.1599 106.863 18.0512C106.752 17.9426 106.621 17.8569 106.477 17.7991C106.333 17.7413 106.179 17.7125 106.024 17.7145H106.013Z" fill="white"/>
<path d="M105.953 37.9246H2.10389C1.79108 37.9206 1.4894 38.0406 1.26473 38.2582C1.04006 38.4759 0.910662 38.7737 0.904785 39.0865V55.941C0.907211 56.096 0.940153 56.249 1.00173 56.3913C1.06331 56.5336 1.15231 56.6624 1.26366 56.7703C1.37502 56.8782 1.50653 56.9631 1.6507 57.0201C1.79487 57.0772 1.94886 57.1053 2.10389 57.1028H105.953C106.108 57.1058 106.262 57.078 106.407 57.0211C106.551 56.9643 106.683 56.8794 106.794 56.7714C106.906 56.6634 106.995 56.5344 107.056 56.3919C107.118 56.2494 107.15 56.0961 107.152 55.941V39.0678C107.15 38.9127 107.118 38.7594 107.056 38.6169C106.995 38.4744 106.906 38.3454 106.794 38.2374C106.683 38.1294 106.551 38.0445 106.407 37.9877C106.262 37.9308 106.108 37.903 105.953 37.906V37.9246Z" fill="white"/>
<path fill-rule="evenodd" clip-rule="evenodd" d="M108.113 35.7346V18.8838C108.105 18.3333 107.88 17.8082 107.487 17.4232C107.093 17.0381 106.563 16.8242 106.013 16.8282H2.16733C1.61714 16.8242 1.08776 17.0382 0.694893 17.4234C0.302026 17.8086 0.07763 18.3336 0.0707546 18.8838V35.7346C0.0730549 36.055 0.150377 36.3705 0.296525 36.6556C0.442673 36.9408 0.653585 37.1878 0.912362 37.3768C0.633413 37.5623 0.404318 37.8135 0.245227 38.1083C0.0861363 38.4031 0.00192501 38.7325 0 39.0675L0 55.922C0.00197211 56.4744 0.223065 57.0035 0.614745 57.3931C1.00642 57.7827 1.53668 58.0009 2.08912 57.9999H105.953C106.505 58.0029 107.035 57.7877 107.428 57.4012C107.822 57.0147 108.047 56.4883 108.053 55.9369V39.0675C108.052 38.746 107.974 38.4295 107.827 38.1436C107.68 37.8576 107.468 37.6103 107.208 37.4215C107.485 37.2353 107.712 36.9843 107.87 36.6903C108.028 36.3963 108.111 36.0682 108.113 35.7346ZM107.152 55.922C107.15 56.077 107.117 56.23 107.055 56.3723C106.994 56.5146 106.905 56.6434 106.793 56.7513C106.682 56.8592 106.551 56.9441 106.406 57.0011C106.262 57.0582 106.108 57.0863 105.953 57.0838H2.10402C1.94886 57.0868 1.79465 57.059 1.65026 57.0021C1.50587 56.9453 1.37416 56.8604 1.26271 56.7524C1.15126 56.6444 1.06227 56.5154 1.00087 56.3729C0.93946 56.2304 0.90685 56.0771 0.904914 55.922V39.0675C0.914652 38.7576 1.04587 38.4641 1.27023 38.2502C1.49458 38.0363 1.79407 37.9192 2.10402 37.9242H105.953C106.266 37.9202 106.568 38.0402 106.792 38.2579C107.017 38.4756 107.146 38.7733 107.152 39.0861V55.922ZM107.216 35.7346C107.213 35.8899 107.18 36.0432 107.118 36.1858C107.056 36.3283 106.967 36.4573 106.855 36.5652C106.744 36.6732 106.612 36.758 106.467 36.8148C106.322 36.8717 106.168 36.8994 106.013 36.8964H2.16733C2.0123 36.8989 1.8583 36.8708 1.71413 36.8137C1.56997 36.7567 1.43845 36.6718 1.3271 36.5639C1.21575 36.456 1.12674 36.3272 1.06517 36.1849C1.00359 36.0426 0.970647 35.8896 0.968221 35.7346V18.8838C0.974098 18.572 1.10311 18.2752 1.32708 18.0582C1.55105 17.8412 1.85178 17.7217 2.1636 17.7256H106.013C106.168 17.7227 106.322 17.7503 106.466 17.8069C106.611 17.8635 106.742 17.948 106.854 18.0555C106.966 18.1631 107.055 18.2916 107.117 18.4337C107.179 18.5758 107.213 18.7288 107.216 18.8838V35.7346Z" fill="#231F20"/>
<path d="M19.4053 18.5601V36.0625H36.1629V18.5601H19.4053Z" fill="#231F20"/>
<path d="M36.8672 18.5601V36.0625H53.6249V18.5601H36.8672Z" fill="#231F20"/>
<path d="M54.4775 18.5601V36.0625H71.2352V18.5601H54.4775Z" fill="#231F20"/>
<path d="M72.0732 18.5601V36.0625H88.8309V18.5601H72.0732Z" fill="#231F20"/>
<path d="M1.81006 18.5601V36.0625H18.5677V18.5601H1.81006Z" fill="#231F20"/>
<path d="M10.5726 33.4555C7.09817 33.4555 5.24365 30.8822 5.24365 27.4153C5.24365 23.6504 7.45194 21.3862 10.5875 21.3862C13.4624 21.3862 14.5982 22.6189 15.3988 24.8234L12.4606 25.9667C12.0398 24.8756 11.6414 24.1866 10.5726 24.1866C9.22081 24.1866 8.63243 25.5459 8.63243 27.4004C8.63243 29.1953 9.20219 30.6178 10.6061 30.6178C11.6227 30.6178 12.0584 30.0667 12.6915 28.957L15.4323 30.4465C14.6503 31.9659 13.3432 33.4555 10.5726 33.4555Z" fill="white"/>
<path d="M28.7934 28.499H26.8533L27.073 27.7319C27.49 26.2423 27.6762 25.5981 27.8178 24.8124C27.9667 25.5981 28.1492 26.2312 28.5625 27.7319L28.7934 28.499ZM33.7239 33.1353L29.4786 21.4385H26.2016L21.9712 33.1353H25.4456L26.0675 31.0611H29.5792L30.2122 33.1353H33.7239Z" fill="white"/>
<path d="M46.899 25.3896C46.899 26.2238 46.4819 26.693 45.4095 26.693H43.4991V24.1458H45.4616C46.5006 24.1458 46.899 24.6523 46.899 25.3896ZM50.3585 33.2099L48.0199 28.7411C49.3047 28.1565 50.1239 27.0728 50.1239 25.3189C50.1239 22.5483 48.3029 21.5093 45.5621 21.5093H40.3486V33.2136H43.5363V29.2402H44.8434L46.7501 33.1912L50.3585 33.2099Z" fill="white"/>
<path d="M61.4451 24.2503V25.8777H65.102V28.6148H61.4451V33.1915H58.2202V21.4946H67.4742V24.2503H61.4451Z" fill="white"/>
<path d="M81.2965 28.5927H79.3601L79.5798 27.8255C79.9969 26.336 80.1794 25.6917 80.3246 24.906C80.4773 25.6917 80.6597 26.3211 81.0694 27.8255L81.2965 28.5927ZM86.2307 33.229L81.9855 21.5396H78.7084L74.478 33.229H77.9525L78.5855 31.1547H82.0935L82.734 33.229H86.2307Z" fill="white"/>
<path d="M89.5532 18.5117V36.0142H106.311V18.5117H89.5532ZM96.2861 35.571L96.5803 35.1614C97.0369 34.4806 97.4522 33.773 97.8241 33.0425C98.1332 33.6755 98.5912 34.4576 99.0492 35.1875L99.3136 35.5971L96.2861 35.571ZM105.853 35.571H103.358L99.8313 30.5698L103.872 24.8908H99.8499L99.1386 26.008C98.6862 26.6953 98.271 27.4063 97.8948 28.1381C97.5294 27.4042 97.1203 26.6928 96.6696 26.008L95.9584 24.8908H91.8434L95.8876 30.6405L92.3164 35.5896H90.0038V18.9772H105.853V35.571Z" fill="#231F20"/>
<path d="M1.72412 38.5913V56.0938H18.4818V38.5913H1.72412ZM18.0237 39.0419V55.6469H2.17099V39.0419H18.0237Z" fill="#3678BC"/>
<path d="M19.3428 38.7437V56.2461H36.1228V38.7437H19.3428Z" fill="#3678BC"/>
<path d="M36.8223 38.7437V56.2461H53.5799V38.7437H36.8223Z" fill="#3678BC"/>
<path d="M54.4136 38.7437V56.2461H71.1712V38.7437H54.4136Z" fill="#3678BC"/>
<path d="M72.0137 38.7437V56.2461H88.7713V38.7437H72.0137Z" fill="#3678BC"/>
<path d="M89.647 38.874V56.3765H106.405V38.874H89.647Z" fill="#3678BC"/>
<path d="M14.1139 53.4272V51.2933H11.5742V41.0488H8.86316C8.85347 41.3443 8.76613 41.632 8.60993 41.883C8.45745 42.1146 8.24336 42.299 7.99176 42.4155C7.70409 42.5415 7.39899 42.6231 7.08685 42.6576C6.71645 42.7064 6.34328 42.7313 5.96967 42.732V44.7616H8.57642V51.2933H5.9585V53.4458L14.1139 53.4272Z" fill="#3678BC"/>
<path d="M33.0907 47.5318C33.0907 49.503 32.5942 51.0025 31.6012 52.0303C31.1108 52.5538 30.5151 52.9674 29.8534 53.2441C29.1916 53.5207 28.4788 53.654 27.7618 53.6353C27.0599 53.6539 26.362 53.5246 25.7133 53.2557C25.0647 52.9869 24.4799 52.5846 23.9969 52.075C23.0038 51.0422 22.5073 49.5415 22.5073 47.5728C22.5073 45.6041 23.0038 44.0922 23.9969 43.037C24.4851 42.5216 25.0771 42.1157 25.7338 41.846C26.3905 41.5764 27.097 41.4493 27.8065 41.473C28.5133 41.4437 29.2182 41.5665 29.8735 41.8331C30.5289 42.0997 31.1193 42.5039 31.6049 43.0184C32.5855 44.0537 33.0808 45.5581 33.0907 47.5318ZM29.7988 47.5691C29.7764 45.4092 29.0987 44.323 27.7655 44.3106C26.4323 44.2982 25.7682 45.3732 25.7732 47.5355C25.7732 49.6954 26.4733 50.7791 27.8065 50.794C29.1396 50.8089 29.7913 49.714 29.7913 47.5691H29.7988Z" fill="white"/>
<path d="M49.5989 53.3044H46.549L46.0053 50.7461C45.5857 48.6334 45.3176 47.0048 45.2009 45.8603C45.0892 47.0073 44.8198 48.6359 44.3928 50.7461L43.8491 53.3044H40.87L38.0547 41.5107H41.4062L41.7265 43.477C42.0418 45.329 42.2776 47.0408 42.434 48.6123C42.6277 47.0557 42.9219 45.3538 43.3129 43.4956L43.7188 41.5107H46.6979L47.1076 43.4956C47.4799 45.3576 47.789 47.0557 47.9789 48.6123C48.1403 47.0333 48.3774 45.3216 48.6902 43.477L49.0105 41.5107H52.362L49.5989 53.3044Z" fill="white"/>
<path d="M65.1881 53.3044L62.4622 49.4315C61.767 48.4112 61.1737 47.4901 60.6821 46.6684C60.746 47.1149 60.7783 47.5654 60.779 48.0164V53.3044H57.7402V41.5107H60.5332L63.0431 44.9963C63.3336 45.3911 63.6724 45.8826 64.0523 46.4859C64.3323 46.9082 64.5884 47.3458 64.8194 47.7967V47.2121C64.8194 46.9551 64.7896 46.7093 64.771 46.4114C64.7487 45.8081 64.7375 45.2533 64.7375 44.7468V41.5256H67.7762V53.3044H65.1881Z" fill="white"/>
<path d="M75.9858 53.3044V41.5107H84.7296V44.259H79.1102V45.8268H82.4841V48.5415H79.1102V50.5599H84.8413V53.3044H75.9858Z" fill="white"/>
<path d="M99.377 53.3044L97.515 49.3161H96.2377V53.3044H93.1245V41.5107H98.2375C99.5967 41.5107 100.68 41.7789 101.488 42.3672C102.297 42.9556 102.68 43.9685 102.691 45.3464C102.659 47.0842 101.975 48.2362 100.639 48.8022L102.915 53.3007L99.377 53.3044ZM99.5371 45.4432C99.5371 44.6202 99.0828 44.1957 98.1444 44.1771H96.2265V46.7466H98.0885C99.0865 46.7354 99.5483 46.3034 99.5371 45.4432Z" fill="white"/>
</svg>
