<svg width="123" height="48" viewBox="0 0 123 48" fill="none" xmlns="http://www.w3.org/2000/svg">
<g clip-path="url(#clip0_343_1653)">
<g clip-path="url(#clip1_343_1653)">
<path d="M83.6657 41.4177H74.4349C73.6696 41.37 72.9019 41.4505 72.1601 41.6562C71.8299 41.771 71.5277 41.9615 71.2747 42.214C71.0062 42.5027 70.7728 42.826 70.58 43.1762C70.2169 43.7814 69.8739 44.3857 69.5512 44.989C69.3451 45.3417 69.181 45.7202 69.063 46.1158C69.0143 46.2563 68.9975 46.4071 69.0139 46.5558C69.0304 46.7046 69.0797 46.8471 69.1578 46.972C69.385 47.2269 69.6946 47.3818 70.0248 47.4056C70.5553 47.4762 71.0902 47.5028 71.6247 47.4851H79.3675C80.0025 47.5444 80.6422 47.4656 81.2475 47.2536C81.6651 47.0124 81.9983 46.6349 82.1975 46.1771C82.5554 45.5263 82.8957 44.8789 83.2185 44.2346C83.2528 44.172 83.2805 44.1056 83.3013 44.0366C83.3114 44.0127 83.3159 43.9865 83.3143 43.9604C83.3126 43.9342 83.305 43.909 83.292 43.8867C83.279 43.8644 83.2611 43.8458 83.2398 43.8325C83.2185 43.8193 83.1944 43.8118 83.1697 43.8107C83.1025 43.7978 83.0341 43.7927 82.9658 43.7953H80.7699C80.344 43.7741 79.9171 43.8116 79.5003 43.9069C79.1073 44.0242 78.7241 44.1753 78.3544 44.3587L78.0912 44.4814C78.024 44.5089 77.96 44.5445 77.9005 44.5874C77.8544 44.6237 77.8334 44.6613 77.8399 44.6948C77.8465 44.7282 77.8794 44.7533 77.936 44.7673C78.0071 44.7815 78.0795 44.7871 78.1518 44.784H79.749C79.8199 44.7811 79.8909 44.7862 79.9608 44.7994C79.9851 44.8025 80.0084 44.8111 80.0292 44.8246C80.0501 44.8381 80.068 44.8561 80.0818 44.8775C80.0918 44.9009 80.097 44.9263 80.097 44.9521C80.097 44.9778 80.0918 45.0032 80.0818 45.0267C80.0563 45.0967 80.0237 45.1636 79.9845 45.2261C79.9082 45.3581 79.8315 45.4901 79.7543 45.6221C79.6942 45.754 79.6036 45.8676 79.4911 45.9526C79.3643 46.0138 79.2245 46.0383 79.0859 46.0237H73.2443C73.0514 46.0296 72.8583 46.0202 72.6667 45.9958C72.5335 45.9828 72.4061 45.9317 72.2982 45.848C72.26 45.8148 72.2306 45.7716 72.2129 45.7228C72.1951 45.6739 72.1896 45.6209 72.197 45.5691C72.2194 45.4416 72.264 45.3196 72.3285 45.2093C72.5917 44.6906 72.8675 44.1793 73.1561 43.6754C73.2402 43.516 73.3462 43.3708 73.4706 43.2445C73.6122 43.111 73.7759 43.0066 73.9534 42.9363C74.1512 42.8567 74.3576 42.8037 74.5678 42.7788C74.7789 42.7549 74.9911 42.7451 75.2033 42.7495H81.3015C81.5638 42.7687 81.826 42.7108 82.0593 42.5821L83.7539 41.8026C83.8437 41.7666 83.9293 41.7198 84.0091 41.6631C84.071 41.6143 84.0986 41.5642 84.0907 41.5237C84.0828 41.4833 84.0381 41.447 83.9592 41.4275C83.8647 41.4085 83.7684 41.401 83.6723 41.4052" fill="white"/>
<path d="M39.1201 47.0479C39.0803 47.1108 39.0472 47.1781 39.0214 47.2487C39.0096 47.272 39.0037 47.298 39.0039 47.3245C39.0042 47.3509 39.0107 47.3768 39.0229 47.3999C39.0351 47.4229 39.0525 47.4423 39.0736 47.4564C39.0947 47.4704 39.1189 47.4786 39.1438 47.4802C39.2136 47.4934 39.2846 47.4985 39.3556 47.4955H41.2409C41.3801 47.5241 41.5243 47.4994 41.6479 47.4259C41.7715 47.3523 41.8665 47.2347 41.9159 47.0939L44.9248 41.866C44.9646 41.8031 44.9977 41.7357 45.0235 41.6652C45.0353 41.6418 45.0413 41.6158 45.041 41.5894C45.0408 41.5629 45.0343 41.537 45.0221 41.5139C45.0099 41.4909 44.9924 41.4715 44.9713 41.4574C44.9502 41.4434 44.9261 41.4353 44.9012 41.4337C44.8313 41.4205 44.7603 41.4153 44.6893 41.4183H42.804C42.6648 41.3897 42.5206 41.4144 42.397 41.488C42.2734 41.5615 42.1784 41.6791 42.129 41.8199L39.1201 47.0479Z" fill="white"/>
<path d="M35.4791 41.8659L35.3818 42.0332C35.2561 42.272 35.0801 42.4768 34.8674 42.6314C34.596 42.8125 34.3042 42.9568 33.999 43.061L27.2693 45.6742C27.1953 45.699 27.1242 45.7327 27.0575 45.7746C27.0062 45.8109 26.9825 45.8485 26.9877 45.8834C26.993 45.9182 27.0285 45.9448 27.089 45.9601C27.1653 45.9755 27.243 45.9816 27.3206 45.9782H33.2912C33.3621 45.9753 33.4331 45.9804 33.503 45.9936C33.5279 45.9951 33.552 46.0033 33.5731 46.0174C33.5942 46.0314 33.6117 46.0508 33.6239 46.0739C33.6361 46.0969 33.6426 46.1228 33.6428 46.1492C33.6431 46.1757 33.6371 46.2018 33.6254 46.2251C33.5996 46.2957 33.5665 46.363 33.5267 46.4259L33.4319 46.5904C33.3569 46.7271 33.2688 46.8551 33.1688 46.9725C33.0571 47.1025 32.9232 47.209 32.7741 47.2863C32.5808 47.3801 32.374 47.439 32.1623 47.4606C31.8518 47.4908 31.5399 47.502 31.2282 47.494H19.5765C19.5056 47.4969 19.4346 47.4918 19.3647 47.4787C19.3408 47.4755 19.3179 47.4668 19.2974 47.4534C19.277 47.4399 19.2595 47.4219 19.2463 47.4006C19.2365 47.3769 19.2314 47.3512 19.2314 47.3253C19.2314 47.2994 19.2365 47.2737 19.2463 47.25C19.271 47.1792 19.3028 47.1115 19.341 47.0478C19.467 46.8078 19.6424 46.6009 19.8541 46.4426C20.124 46.2605 20.4168 46.1196 20.7238 46.0242L28.7981 43.0694C28.8742 43.0452 28.9475 43.012 29.0165 42.9703C29.0691 42.9341 29.0955 42.8964 29.0889 42.8615C29.0823 42.8267 29.0468 42.8002 28.9863 42.7835C28.9082 42.768 28.8288 42.7619 28.7494 42.7653H23.0078C22.8056 42.7722 22.6032 42.7615 22.4026 42.7332C22.2756 42.7217 22.1569 42.6618 22.0684 42.5645C22.0377 42.518 22.0182 42.4641 22.0118 42.4076C22.0054 42.3512 22.0122 42.294 22.0316 42.241C22.0799 42.093 22.1463 41.9524 22.2289 41.8227C22.2786 41.682 22.3736 41.5646 22.4971 41.4911C22.6206 41.4176 22.7647 41.3928 22.9039 41.4211H35.2463C35.3172 41.418 35.3882 41.4232 35.4581 41.4364C35.483 41.4379 35.5071 41.4461 35.5282 41.4602C35.5494 41.4742 35.5668 41.4936 35.579 41.5167C35.5912 41.5397 35.5977 41.5657 35.5979 41.5921C35.5982 41.6185 35.5922 41.6446 35.5804 41.6679C35.555 41.7384 35.5223 41.8057 35.4831 41.8687" fill="white"/>
<path d="M6.18762 42.7993C9.06808 42.7752 11.949 42.7631 14.8303 42.7631C14.9009 42.7718 14.9723 42.7567 15.0342 42.7199C15.089 42.6707 15.1292 42.6058 15.15 42.533C15.571 41.4174 14.1606 41.4174 12.9068 41.4174H5.42715C4.66177 41.3696 3.89407 41.4501 3.15234 41.6559C2.82215 41.7707 2.51985 41.9612 2.26689 42.2137C1.99837 42.5025 1.765 42.8257 1.57221 43.1758C1.20908 43.7811 0.866129 44.3854 0.543349 44.9887C0.33721 45.3414 0.173247 45.7198 0.0552317 46.1154C0.0064902 46.256 -0.0103329 46.4068 0.00612441 46.5555C0.0225818 46.7043 0.0718571 46.8468 0.149961 46.9717C0.377222 47.2266 0.686806 47.3815 1.01699 47.4053C1.54752 47.4759 2.08243 47.5025 2.61686 47.4848H9.83337C10.5987 47.5326 11.3664 47.4521 12.1082 47.2464C12.4384 47.1315 12.7407 46.9411 12.9936 46.6886C13.2622 46.3999 13.4956 46.0766 13.6883 45.7264L13.7673 45.5939C13.8079 45.5311 13.8419 45.4638 13.8686 45.3931C13.8806 45.3699 13.8868 45.3437 13.8868 45.3172C13.8868 45.2907 13.8804 45.2647 13.8683 45.2414C13.8563 45.2182 13.8389 45.1986 13.8178 45.1844C13.7966 45.1702 13.7725 45.1619 13.7475 45.1602C13.6768 45.1468 13.6049 45.1416 13.5331 45.1449H12.2069C12.0427 45.1323 11.8785 45.169 11.7332 45.2508L10.8267 45.6776C10.5693 45.8102 10.297 45.9072 10.0162 45.9662C9.70126 46.0185 9.38236 46.0395 9.06369 46.029H4.22725C4.03434 46.0348 3.84128 46.0255 3.64967 46.0011C3.51652 45.988 3.38921 45.9369 3.28128 45.8533C3.24306 45.8201 3.21363 45.7769 3.19588 45.728C3.17812 45.6791 3.17264 45.6262 3.17997 45.5744C3.20248 45.4468 3.24709 45.3249 3.31154 45.2146C3.57468 44.6958 3.85053 44.1845 4.1391 43.6806C4.22174 43.5253 4.3235 43.3823 4.44171 43.2553C4.56812 43.1284 4.71703 43.0294 4.87983 42.9639C5.06824 42.8899 5.26515 42.843 5.46531 42.8245C5.68766 42.7994 5.91001 42.7966 6.1863 42.7938" fill="white"/>
<path d="M93.2494 43.4761C93.3624 43.2168 93.5574 43.0076 93.8006 42.8848C94.1382 42.7759 94.4921 42.7348 94.844 42.7634H102.87C102.937 42.7733 103.005 42.7646 103.069 42.7383C103.132 42.7119 103.187 42.6687 103.23 42.6128L104.058 41.7971C104.11 41.7494 104.157 41.6956 104.198 41.6367C104.215 41.6206 104.227 41.5994 104.232 41.576C104.237 41.5525 104.236 41.528 104.228 41.5056C104.219 41.4832 104.205 41.464 104.186 41.4506C104.167 41.4371 104.145 41.4301 104.122 41.4303C104.055 41.417 103.986 41.4119 103.917 41.415H94.3861C93.6207 41.3672 92.853 41.4476 92.1113 41.6535C91.7811 41.7683 91.4788 41.9587 91.2259 42.2112C90.9574 42.5 90.724 42.8233 90.5312 43.1734C90.168 43.7786 89.8251 44.3829 89.5023 44.9863C89.2962 45.339 89.1323 45.7174 89.0142 46.113C88.9655 46.2536 88.9486 46.4044 88.9651 46.5531C88.9816 46.7019 89.0308 46.8444 89.1089 46.9692C89.3362 47.2242 89.6458 47.3791 89.976 47.4029C90.5065 47.4735 91.0414 47.5001 91.5758 47.4824H100.941C101.08 47.511 101.224 47.4863 101.348 47.4128C101.471 47.3392 101.566 47.2216 101.616 47.0808L101.968 46.4672C102.008 46.4043 102.041 46.337 102.067 46.2664C102.079 46.2431 102.085 46.217 102.085 46.1906C102.084 46.1642 102.078 46.1383 102.066 46.1152C102.053 46.0922 102.036 46.0727 102.015 46.0587C101.994 46.0447 101.97 46.0365 101.945 46.0349C101.875 46.0217 101.804 46.0165 101.733 46.0196H92.9586C92.7921 46.0251 92.6253 46.0167 92.46 45.9945C92.3524 45.9845 92.2515 45.9352 92.1745 45.855C92.1485 45.8198 92.1316 45.778 92.1254 45.7338C92.1192 45.6896 92.1239 45.6444 92.139 45.6026C92.177 45.4863 92.2292 45.3756 92.2942 45.2735C92.3395 45.1718 92.4105 45.0853 92.4995 45.0239C92.5967 44.9793 92.7031 44.9615 92.8086 44.9723H100.409C100.543 44.9913 100.68 44.9737 100.806 44.9213C100.932 44.8688 101.043 44.7832 101.129 44.6725L101.611 44.1984C101.663 44.1508 101.71 44.097 101.751 44.038C101.768 44.0219 101.78 44.0007 101.785 43.9773C101.79 43.9539 101.789 43.9293 101.78 43.9069C101.772 43.8845 101.758 43.8653 101.739 43.8519C101.72 43.8384 101.698 43.8314 101.675 43.8317C101.607 43.8184 101.539 43.8133 101.47 43.8163H93.4178C93.3614 43.8187 93.3049 43.8145 93.2494 43.8037C93.2309 43.8014 93.2132 43.7945 93.1976 43.7836C93.1821 43.7727 93.1692 43.7581 93.1599 43.741C93.1309 43.6741 93.1783 43.5806 93.2468 43.4621" fill="white"/>
<path d="M120.753 43.5895C120.705 43.6733 120.643 43.7463 120.569 43.8043C120.476 43.8742 120.372 43.927 120.262 43.9605C120.018 44.0298 119.765 44.0594 119.512 44.0483H113.096C113.039 44.0507 112.982 44.0465 112.926 44.0358C112.906 44.0346 112.887 44.0281 112.87 44.0169C112.853 44.0056 112.839 43.99 112.829 43.9715C112.819 43.953 112.814 43.9322 112.814 43.911C112.814 43.8898 112.819 43.8689 112.829 43.8503C112.849 43.794 112.876 43.7402 112.908 43.6899L113.332 42.9509C113.37 42.8452 113.441 42.7568 113.534 42.7017C113.626 42.6465 113.735 42.628 113.839 42.6496H120.146C120.282 42.6456 120.418 42.6522 120.553 42.6692C120.654 42.6802 120.751 42.7197 120.833 42.7835C120.867 42.8125 120.894 42.8488 120.913 42.8899C120.933 42.931 120.944 42.9761 120.945 43.022C120.946 43.1249 120.926 43.2268 120.886 43.3204C120.85 43.4138 120.806 43.5034 120.754 43.5881M108.272 47.0506C108.233 47.1136 108.2 47.1809 108.174 47.2515C108.162 47.2748 108.156 47.3008 108.156 47.3273C108.157 47.3537 108.163 47.3796 108.175 47.4027C108.187 47.4257 108.205 47.4452 108.226 47.4592C108.247 47.4732 108.271 47.4814 108.296 47.4829C108.366 47.4961 108.437 47.5013 108.508 47.4983H110.416C110.555 47.5269 110.699 47.5022 110.823 47.4286C110.946 47.3551 111.041 47.2375 111.091 47.0967L111.962 45.5836C111.999 45.4779 112.07 45.3896 112.163 45.3344C112.255 45.2793 112.364 45.2608 112.468 45.2824H116.678C116.782 45.2628 116.888 45.2784 116.983 45.327C117.077 45.3756 117.155 45.4547 117.205 45.553L118.362 47.1357C118.428 47.2653 118.53 47.3698 118.655 47.4345C118.78 47.4993 118.92 47.5211 119.057 47.4969H120.988C121.067 47.5005 121.145 47.4949 121.223 47.4802C121.249 47.4794 121.275 47.4707 121.297 47.4551C121.32 47.4396 121.337 47.4178 121.349 47.3921C121.36 47.3665 121.364 47.338 121.361 47.31C121.358 47.2819 121.347 47.2554 121.331 47.2333C121.292 47.1612 121.245 47.0938 121.192 47.0325L120.02 45.5572C119.954 45.4665 119.911 45.3982 119.936 45.3424C119.944 45.3283 119.954 45.3162 119.967 45.307C119.98 45.2978 119.994 45.2918 120.01 45.2894C120.053 45.2804 120.097 45.2762 120.141 45.2769C120.663 45.2913 121.182 45.1757 121.654 44.9394C122.037 44.7174 122.357 44.3922 122.583 43.9967C122.721 43.7673 122.83 43.5198 122.907 43.2605C122.984 43.0232 123.013 42.7715 122.994 42.5214C122.971 42.2675 122.862 42.0309 122.688 41.8548C122.477 41.6593 122.218 41.532 121.941 41.4881C121.58 41.4283 121.215 41.4049 120.85 41.4183H111.956C111.817 41.3897 111.673 41.4144 111.549 41.488C111.426 41.5615 111.331 41.6791 111.281 41.8199L108.272 47.0479" fill="white"/>
<path d="M61.1839 47.4942H59.4235C59.0922 47.5282 58.7615 47.423 58.5026 47.2013L53.6806 43.8546C53.549 43.7653 53.4543 43.704 53.3556 43.7249C53.2569 43.7458 53.1938 43.8448 53.1135 43.9843L51.3255 47.0912C51.2761 47.232 51.1811 47.3496 51.0575 47.4231C50.934 47.4967 50.7897 47.5214 50.6506 47.4928H48.756C48.6851 47.4958 48.6141 47.4906 48.5442 47.4774C48.5193 47.4759 48.4952 47.4677 48.474 47.4537C48.4529 47.4397 48.4355 47.4202 48.4233 47.3972C48.4111 47.3741 48.4046 47.3482 48.4043 47.3218C48.404 47.2954 48.4101 47.2693 48.4218 47.246C48.4477 47.1754 48.4808 47.1081 48.5205 47.0452L51.5294 41.8172C51.5789 41.6765 51.6739 41.5588 51.7975 41.4853C51.9211 41.4117 52.0652 41.3871 52.2044 41.4156H54.0871C54.4184 41.3818 54.7491 41.4869 55.0081 41.7085L59.7775 45.0092C59.909 45.0985 60.0024 45.1584 60.1011 45.1347C60.1998 45.111 60.2629 45.0134 60.3432 44.8739L62.1023 41.8172C62.1517 41.6765 62.2466 41.5588 62.3702 41.4853C62.4938 41.4117 62.6381 41.3871 62.7772 41.4156H64.6297C64.7006 41.4126 64.7716 41.4177 64.8415 41.431C64.8664 41.4325 64.8905 41.4407 64.9116 41.4548C64.9327 41.4688 64.9502 41.4882 64.9624 41.5113C64.9746 41.5343 64.9811 41.5602 64.9814 41.5866C64.9816 41.6131 64.9756 41.6392 64.9639 41.6625C64.9379 41.733 64.9048 41.8003 64.8652 41.8633L61.8562 47.0912C61.8068 47.232 61.7118 47.3496 61.5882 47.4231C61.4647 47.4967 61.3204 47.5214 61.1813 47.4928" fill="white"/>
<path d="M115.604 0.0220661H33.9424C31.1559 -0.0629875 28.3676 0.0979336 25.6063 0.503163C23.2499 0.861647 20.9951 1.75802 18.9976 3.13037C17.1728 4.43797 15.6889 6.21266 14.6835 8.28996C13.669 10.392 13.0946 12.7013 12.9994 15.0602C12.8834 17.3808 13.2513 19.6999 14.077 21.8527C14.8741 23.9268 16.1884 25.732 17.8793 27.0751C19.7661 28.4938 21.941 29.4228 24.2288 29.7873C27.0797 30.2345 29.9612 30.4253 32.8425 30.3577C44.3012 30.4506 55.7599 30.4506 67.2186 30.3577C71.1206 30.5007 75.0245 30.1425 78.8453 29.2909C82.3976 28.291 84.6987 26.5605 87.9603 23.9737C94.0308 19.16 100.171 14.1659 106.38 8.99139C106.528 8.88144 106.66 8.75054 106.775 8.60233C106.813 8.55669 106.84 8.50132 106.853 8.44151C106.865 8.38169 106.863 8.31943 106.847 8.26068C106.821 8.20645 106.784 8.15917 106.738 8.12244C106.693 8.0857 106.64 8.06049 106.584 8.04872C106.425 8.00998 106.261 7.99449 106.098 8.0027H98.0266C96.471 7.93816 94.9142 8.08863 93.3954 8.45033C91.955 8.85327 90.5801 9.48366 89.3168 10.3203L69.375 22.3924C68.0443 23.2367 66.6634 23.989 65.2411 24.6445C63.9588 25.2148 62.6136 25.6111 61.2375 25.8242C59.8825 26.0111 58.5175 26.1043 57.151 26.1031C56.4445 26.1156 55.7235 26.1212 54.9867 26.1296L52.7501 26.1561C50.2941 26.1849 47.8382 26.1849 45.3823 26.1561C43.1438 26.1916 40.9064 26.0293 38.6933 25.6708C36.9017 25.3803 35.1902 24.684 33.6753 23.6293C32.3754 22.6651 31.3356 21.3577 30.659 19.8366C29.9824 18.3155 29.6924 16.6334 29.8178 14.957C29.8996 13.2454 30.3721 11.5805 31.1948 10.1051C32.0175 8.62982 33.1658 7.38819 34.541 6.48689C36.0609 5.52528 37.7469 4.89563 39.4999 4.63502C41.4488 4.35431 43.416 4.24099 45.3823 4.29616H109.749C110.471 4.33821 111.194 4.24281 111.885 4.01447C112.472 3.79072 113.014 3.45308 113.485 3.01881C114.291 2.33459 115.1 1.6471 115.909 0.95637C116.237 0.677474 116.454 0.454356 116.387 0.259128C116.32 0.0639007 116.02 0.0290386 115.597 0.0290386" fill="white"/>
</g>
</g>
<defs>
<clipPath id="clip0_343_1653">
<rect width="123" height="48" fill="white"/>
</clipPath>
<clipPath id="clip1_343_1653">
<rect width="123" height="48" fill="white"/>
</clipPath>
</defs>
</svg>
