<svg width="140" height="27" viewBox="0 0 140 27" fill="none" xmlns="http://www.w3.org/2000/svg">
<g clip-path="url(#clip0_344_1801)">
<path d="M131.788 15.876C132.816 12.4571 134.433 6.75675 134.948 4.7925H135.145C134.907 7.26975 134.396 12.771 134.08 15.876H131.792H131.788ZM133.606 20.1994L133.012 26.6051H138.027L140 0.3915H132.3L123.22 26.6051H128.432L130.405 20.1994H133.602H133.606ZM118.325 18.2756L117.931 20.1623C117.497 22.1265 117.063 22.9534 116.036 22.9534C114.853 22.9534 114.853 21.8936 115.205 20.2028L118.087 6.6825C118.481 4.79587 118.877 4.05 119.864 4.05C120.929 4.05 121.129 4.87688 120.773 6.56438L120.379 8.4105H125.353L125.55 7.42838C126.299 4.32338 126.34 0 120.142 0C115.643 0 113.944 2.47725 112.876 7.4655L110.31 19.3354C109.204 24.4451 110.94 27 115.599 27C121.363 27 122.23 23.1491 123.139 19.413L123.376 18.2723H118.321L118.325 18.2756ZM106.56 0.3915L100.952 26.6051H105.926L111.537 0.3915H106.563H106.56ZM95.1913 4.28287H95.9813C97.68 4.28287 97.8765 5.10975 97.5206 6.87825L97.2052 8.48813C96.7712 10.8472 96.1779 11.3569 94.3641 11.3569H93.6928L95.1947 4.28287H95.1913ZM85.4776 26.6085H90.4515L92.8586 15.2888H93.5673C95.188 15.2888 95.4219 15.957 94.8692 18.549C94.0013 22.6361 93.4079 25.4273 93.4486 26.6051H98.3444C98.4225 25.2281 99.0938 22.0084 99.6464 19.4906C100.596 15.444 99.8057 14.2256 98.6598 13.4393C100.199 13.0073 101.542 11.8665 102.213 8.72438L102.528 7.19212C103.474 2.673 101.501 0.3915 97.1205 0.3915H91.0413L85.4742 26.6051L85.4776 26.6085ZM74.8958 26.6085H79.8697L84.5282 4.71825H88.3189L89.2647 0.394875H76.7505L75.8045 4.71825H79.5544L74.8958 26.6085ZM60.5643 26.6085L61.4729 22.1265C62.3409 17.9989 63.2495 11.8294 63.7242 8.72438H63.8835C63.8056 9.58838 63.765 13.716 63.765 15.012L63.687 26.6051H69.3321L74.9365 0.3915H70.2407L69.3321 4.67438C68.5794 8.37 67.6742 14.4585 67.1588 18.0765H67.0401C67.0807 16.9358 67.1961 13.4393 67.1961 11.8665V0.3915H61.5103L55.943 26.6051H60.5609L60.5643 26.6085ZM56.3024 10.611H50.8539L52.1186 4.67775H57.8451L58.791 0.394875H48.0907L42.4829 26.6085H53.4985L54.9598 22.2851H48.406L49.9045 14.9344H55.3531L56.3024 10.611ZM36.9936 18.2756L36.597 20.1623C36.163 22.1265 35.729 22.9534 34.7017 22.9534C33.5184 22.9534 33.5184 21.8936 33.8744 20.2028L36.7563 6.6825C37.1496 4.79587 37.5463 4.05 38.5329 4.05C39.5975 4.05 39.7975 4.87688 39.4415 6.56438L39.0482 8.4105H44.022L44.2187 7.42838C44.968 4.32338 45.0087 0 38.8109 0C34.3084 0 32.6131 2.47725 31.5451 7.4655L28.9785 19.3354C27.8732 24.4451 29.6092 27 34.2677 27C40.0315 27 40.8995 23.1491 41.8081 19.413L42.0455 18.2723H36.9936V18.2756ZM22.3061 18.2756L21.9127 20.1623C21.4788 22.1265 21.0448 22.9534 20.0175 22.9534C18.8342 22.9534 18.8342 21.8936 19.1902 20.2028L22.0721 6.6825C22.4654 4.79587 22.862 4.05 23.8487 4.05C24.9133 4.05 25.1133 4.87688 24.7573 6.56438L24.3641 8.4105H29.3378L29.5345 7.42838C30.2838 4.32338 30.3246 0 24.1268 0C19.6241 0 17.929 2.47725 16.8609 7.4655L14.2943 19.3354C13.189 24.4451 14.925 27 19.5835 27C25.3473 27 26.2153 23.1491 27.1239 19.413L27.3612 18.2723H22.3094L22.3061 18.2756ZM13.8196 10.611H8.37112L9.63577 4.67775H15.3623L16.3082 0.394875H5.60787L0 26.6085H11.0157L12.477 22.2851H5.92318L7.42178 14.9344H12.8703L13.8162 10.611H13.8196Z" fill="#929292"/>
</g>
<defs>
<clipPath id="clip0_344_1801">
<rect width="140" height="27" fill="white"/>
</clipPath>
</defs>
</svg>
