<svg width="238" height="26" viewBox="0 0 238 26" fill="none" xmlns="http://www.w3.org/2000/svg">
<g clip-path="url(#clip0_344_1763)">
<path d="M14.9068 8.01922V5.38044H31.0966V11.4033C31.0966 12.3909 30.1861 13.3665 28.5034 13.3665H3.90025C1.29209 13.3695 -0.00797595 12.2778 3.68121e-05 10.0915L0.039099 3.23549C0.0481134 1.09962 1.32214 0.032194 3.86119 0.0332038H31.0966V2.70228H7.38279C6.54446 2.70228 5.35456 3.08704 5.35456 3.85353V9.61582C5.35456 10.3399 6.54446 10.7034 7.38279 10.7034H24.4139C25.2763 10.7034 25.703 10.346 25.694 9.63097V8.02528H14.9038L14.9068 8.01922Z" fill="#929292"/>
<path d="M60.751 9.60083V0.0212402H65.6878V11.8427C65.6878 12.9849 65.4414 13.3696 63.5274 13.3696H38.4765C35.8864 13.3696 34.5913 12.277 34.5913 10.0916V0.0212402H39.6063V9.58265C39.6063 10.3279 40.029 10.7006 40.8743 10.7006H59.4769C60.3243 10.7006 60.748 10.334 60.748 9.60083" fill="#929292"/>
<path d="M73.7674 3.52645V13.3696H68.7914L68.7554 1.53601C68.7549 1.33468 68.7938 1.13524 68.8699 0.949084C68.9459 0.762924 69.0576 0.593691 69.1985 0.451052C69.3394 0.308412 69.5068 0.195162 69.6911 0.117769C69.8755 0.0403764 70.0731 0.000358267 70.2728 5.84539e-07H73.6562C74.5705 -0.000398373 75.4735 0.203428 76.3004 0.596831L95.1554 9.94011C95.2161 9.96923 95.2831 9.98234 95.3502 9.97822C95.4173 9.97411 95.4823 9.95289 95.539 9.91657C95.5957 9.88024 95.6424 9.83 95.6747 9.77053C95.7069 9.71106 95.7236 9.64432 95.7233 9.57656L95.7113 0.0333261H100.714V12.2123C100.714 12.3603 100.685 12.5069 100.629 12.6436C100.573 12.7804 100.491 12.9047 100.387 13.0093C100.283 13.114 100.16 13.197 100.024 13.2536C99.8887 13.3102 99.7433 13.3394 99.5965 13.3393H96.5556C95.9911 13.3391 95.4333 13.215 94.921 12.9758L75.2938 3.77488C74.9058 3.5995 74.4839 3.5136 74.0588 3.52342L73.7644 3.52948L73.7674 3.52645Z" fill="#929292"/>
<path d="M122.574 13.3696H117.385V2.71452H104.558V0H135.068V2.66907H122.574V13.3696Z" fill="#929292"/>
<path d="M143.698 0.0334473H138.758V13.3697H143.698V0.0334473Z" fill="#929292"/>
<path d="M164.431 0.0334473V5.36251H145.215V8.03158H164.431V13.3697H169.392V0.0334473H164.431Z" fill="#929292"/>
<path d="M179.8 8.04066H203.685V5.37158H179.8V8.04066Z" fill="#929292"/>
<path d="M175.161 2.0469e-07C174.895 -0.000119835 174.633 0.0525585 174.387 0.155019C174.142 0.257479 173.919 0.407707 173.732 0.597102C173.544 0.786497 173.395 1.01134 173.294 1.25875C173.193 1.50616 173.141 1.77127 173.142 2.03892V11.058C173.142 11.3616 173.201 11.6622 173.316 11.9427C173.431 12.2232 173.6 12.478 173.813 12.6927C174.026 12.9073 174.279 13.0776 174.557 13.1937C174.835 13.3099 175.133 13.3697 175.434 13.3696H203.685V10.7005H179.106C178.969 10.7007 178.833 10.6737 178.707 10.6209C178.58 10.5682 178.465 10.4907 178.368 10.3931C178.272 10.2954 178.195 10.1794 178.142 10.0518C178.09 9.92417 178.063 9.78738 178.063 9.64927V3.48101C178.063 3.26567 178.148 3.05915 178.299 2.90688C178.45 2.75462 178.655 2.66908 178.869 2.66908H203.685V2.0469e-07H175.161Z" fill="#929292"/>
<path d="M230.467 9.08872H232.892C236.855 9.08872 237.958 6.39541 237.958 4.5928V4.4898C237.958 2.39029 237.072 0.02417 234.166 0.02417H209.187C208.698 0.0240075 208.229 0.219425 207.882 0.567568C207.536 0.915712 207.341 1.38816 207.339 1.88131L207.306 13.3695H212.664V3.65666C212.664 3.52993 212.689 3.40448 212.737 3.28746C212.785 3.17045 212.856 3.06417 212.945 2.9747C213.034 2.88524 213.14 2.81433 213.256 2.76603C213.372 2.71774 213.497 2.69301 213.622 2.69324H230.47C232.895 2.69324 233.051 3.92932 233.042 4.64431V4.43526C233.033 5.18963 232.895 6.44086 230.47 6.44086H214.112V9.08872H223.811L231.29 13.3695H238L230.473 9.08872H230.467Z" fill="#929292"/>
<path d="M6.83603 20.0952L8.05598 23.3914L8.3234 24.3094L8.59083 23.4096L9.63649 20.0952H11.6767L12.7765 23.3914L13.0589 24.3094L13.3444 23.4278L14.5794 20.0952H16.5505L13.9454 25.8514H12.0914L10.9736 22.4856L10.6461 21.3707L10.3216 22.4856L9.2038 25.8514H7.40694L4.78076 20.0952H6.83603Z" fill="#929292"/>
<path d="M69.8401 21.1132H64.9423V22.3371H69.4404V23.3369H64.9423V24.8184H70.0684V25.8514H63.0522V20.0952H69.8401V21.1132Z" fill="#929292"/>
<path d="M118.788 21.0951V22.6433H120.87C121.184 22.655 121.497 22.6234 121.802 22.5493C121.955 22.5256 122.095 22.4471 122.196 22.3281C122.297 22.2091 122.352 22.0576 122.352 21.901C122.357 21.7399 122.307 21.5818 122.21 21.4536C122.114 21.3255 121.975 21.2352 121.82 21.1981C121.528 21.1187 121.226 21.084 120.924 21.0951H118.788ZM122.787 20.2438C123.099 20.3204 123.393 20.4572 123.653 20.6468C123.836 20.7784 123.994 20.9427 124.119 21.1315C124.234 21.311 124.293 21.5208 124.29 21.7344C124.279 22.0356 124.16 22.3228 123.956 22.5433C123.661 22.8467 123.274 23.0436 122.857 23.1038C123.196 23.1639 123.511 23.3218 123.764 23.5582C123.961 23.8142 124.056 24.135 124.031 24.458V24.8458C124.023 25.0261 124.04 25.2067 124.082 25.382C124.113 25.4605 124.162 25.5307 124.224 25.5875C124.286 25.6442 124.36 25.6858 124.44 25.7092V25.8546H122.304C122.255 25.7547 122.212 25.6514 122.177 25.5456C122.126 25.3849 122.099 25.2175 122.096 25.0488L122.084 24.5125C122.099 24.3737 122.078 24.2334 122.025 24.1047C121.971 23.976 121.886 23.8631 121.778 23.7763C121.43 23.6257 121.052 23.5633 120.675 23.5946H118.785V25.8516H116.895V20.0954H121.324C121.815 20.0884 122.305 20.1382 122.784 20.2438H122.787Z" fill="#929292"/>
<path d="M171.453 20.0952H173.358V22.4674L176.934 20.0952H179.434L175.636 22.4613L179.629 25.8514H177.141L174.29 23.3399L173.358 23.9277V25.8514H171.453V20.0952Z" fill="#929292"/>
<path d="M227.384 24.0731C227.426 24.3067 227.551 24.5168 227.736 24.6639C228.057 24.9002 228.606 25.0184 229.382 25.0184C229.763 25.0265 230.144 24.9951 230.518 24.9245C231.071 24.8033 231.347 24.5821 231.347 24.2549C231.347 24.0641 231.212 23.9186 230.942 23.8156C230.523 23.6813 230.092 23.591 229.656 23.546L228.655 23.4097C227.964 23.3425 227.283 23.1941 226.627 22.9673C226.002 22.7007 225.689 22.2857 225.689 21.7222C225.689 21.2071 225.993 20.7769 226.606 20.4376C227.219 20.0983 228.114 19.9256 229.295 19.9256C230.162 19.9017 231.024 20.066 231.822 20.4073C232.519 20.7285 232.885 21.195 232.919 21.807H231.059C231.023 21.4616 230.776 21.2132 230.311 21.0678C229.935 20.9621 229.546 20.9131 229.157 20.9224C228.741 20.9074 228.326 20.9712 227.934 21.1102C227.63 21.2344 227.477 21.4101 227.477 21.6343C227.477 21.8403 227.627 21.9948 227.928 22.0948C228.331 22.2058 228.742 22.2858 229.157 22.3342L230.782 22.5735C231.334 22.6329 231.873 22.7738 232.384 22.9916C232.623 23.0807 232.83 23.2406 232.978 23.4504C233.125 23.6602 233.206 23.91 233.21 24.1671C233.21 24.6791 232.883 25.1305 232.231 25.4789C231.579 25.8273 230.653 26 229.46 26C228.476 26.0427 227.495 25.8679 226.585 25.488C225.888 25.1456 225.539 24.675 225.539 24.0762H227.387L227.384 24.0731Z" fill="#929292"/>
</g>
<defs>
<clipPath id="clip0_344_1763">
<rect width="238" height="26" fill="white"/>
</clipPath>
</defs>
</svg>
