<svg width="132" height="39" viewBox="0 0 132 39" fill="none" xmlns="http://www.w3.org/2000/svg">
<path fill-rule="evenodd" clip-rule="evenodd" d="M16.9971 4.03862C21.2002 3.74781 26.1026 5.76411 29.1612 8.59819C32.5553 11.7617 34.5552 16.151 34.7198 20.7964C34.8913 25.3857 33.253 29.8577 30.1602 33.2427C27.0296 36.6603 22.672 38.6866 18.0498 38.8746C13.3542 38.9351 9.26962 37.466 5.78422 34.2759C2.39655 31.1746 0.369194 26.8544 0.144571 22.2583C-0.0632448 17.6202 1.57424 13.0891 4.69731 9.66362C7.95194 6.08969 12.2097 4.25182 16.9971 4.03862ZM32.3282 20.0035C31.5378 11.7465 24.2182 5.70065 15.9913 6.50932C7.78649 7.31596 1.78119 14.6369 2.56938 22.8716C3.35769 31.1064 10.6419 37.1459 18.8496 36.3707C27.0795 35.5932 33.1184 28.2603 32.3282 20.0035Z" fill="#1C1C1C"/>
<path d="M9.25203 14.496C11.1622 14.4583 14.3014 14.4106 16.1605 14.521C16.1689 14.9283 16.2271 15.404 16.2672 15.8146C17.0728 15.8914 18.381 15.8592 19.22 15.8591L24.1867 15.8552C24.8102 15.8544 25.7888 15.8189 26.4156 15.9055C26.5285 15.9211 26.5886 16.1442 26.6386 16.2662C26.8691 16.4074 27.0727 16.4256 27.3374 16.4715C27.3304 18.0057 27.2943 19.261 27.0909 20.8021C27.0127 21.2826 27.0036 22.0708 26.9574 22.5761C26.7813 24.5013 26.8819 26.7384 26.6138 28.6243C25.9069 28.7094 24.5979 28.6832 23.8535 28.6827L19.4171 28.6801L12.6253 28.6824C11.2255 28.6829 9.74258 28.7186 8.35407 28.6374C8.17573 27.4501 8.14241 25.0923 8.06932 23.7866C7.93802 21.44 7.72314 18.9188 7.74022 16.5894C8.92519 15.8048 9.1578 15.9539 9.25203 14.496Z" fill="#1C1C1C"/>
<path d="M26.638 16.2661C26.8686 16.4073 27.0721 16.4255 27.3369 16.4714C27.3299 18.0056 27.2937 19.261 27.0903 20.802C26.5391 20.3393 26.6059 17.0941 26.638 16.2661Z" fill="#39393A"/>
<path fill-rule="evenodd" clip-rule="evenodd" d="M45.1118 12.3867C46.4821 12.4375 48.0435 12.3966 49.44 12.3994C51.7976 12.3722 54.4837 12.3171 56.3042 14.0781C58.1289 15.8433 58.0971 19.5555 56.2818 21.3203C54.3172 23.2301 51.6144 23.0728 49.0972 23.0703L47.6997 23.0713C47.6675 25.8246 47.6965 28.6363 47.6958 31.3945L45.0777 31.3994C45.0161 26.5126 45.1075 21.6074 45.0689 16.7188C45.0575 15.2863 45.0531 13.8158 45.1118 12.3867ZM54.9136 17.7285C55.0243 14.1817 50.4465 14.6815 48.0132 14.6904C47.9094 14.6904 47.8055 14.6915 47.7017 14.6934L47.6948 20.8037C49.4448 20.8326 52.6178 21.0279 53.9986 19.874C54.7063 19.1774 54.8822 18.7335 54.9136 17.7285Z" fill="#1C1C1C"/>
<path fill-rule="evenodd" clip-rule="evenodd" d="M103.867 18.3087C106.799 18.2973 108.898 19.546 109.765 22.4874C110.116 23.6783 110.104 24.563 110.103 25.7862C106.775 25.8584 103.356 25.7749 100.009 25.8116C100.511 29.9124 105.05 30.8721 107.653 27.8653C107.692 27.8142 107.768 27.7837 107.828 27.753C108.223 27.8734 109.205 28.7996 109.567 29.1212C109.456 29.2756 109.341 29.4272 109.221 29.5743C107 32.2438 102.282 32.4352 99.6666 30.2686C96.9031 27.9794 96.6597 23.2494 98.941 20.5479C100.155 19.1106 101.611 18.4854 103.445 18.3302C103.585 18.3158 103.726 18.3082 103.867 18.3087ZM107.523 23.8536C107.35 21.6793 106.007 20.0805 103.702 20.3321C101.579 20.5738 100.353 21.7247 100.018 23.8516C101.322 23.868 102.626 23.8733 103.93 23.8673C105.084 23.8651 106.382 23.8922 107.523 23.8536Z" fill="#1C1C1C"/>
<path fill-rule="evenodd" clip-rule="evenodd" d="M63.1507 18.3267C64.5351 18.1677 66.3238 18.5027 67.4046 19.3931C68.6303 20.4031 69.0271 21.803 69.0374 23.3277C69.0555 26.022 68.9386 28.7017 69.2337 31.3823C68.443 31.3997 67.6527 31.3983 66.8626 31.3775L66.6976 29.6685C65.1965 31.5981 63.0959 32.057 60.7874 31.5435C59.6084 31.2812 58.7855 30.6432 58.1751 29.6079C57.9176 29.0153 57.7854 28.5079 57.7777 27.857C57.7258 23.4474 63.6928 23.5548 66.6546 23.5191C66.634 23.2887 66.6098 23.0564 66.5872 22.8286C66.2946 19.8523 62.5607 19.9406 60.6527 21.2681C60.3666 21.4671 60.1254 21.6547 59.8587 21.8736C59.5562 21.4413 58.8641 20.6571 58.5042 20.2222C59.6707 19.0146 61.4905 18.4674 63.1195 18.3306L63.1507 18.3267ZM66.6507 25.3472C66.0855 25.348 65.3659 25.3317 64.8167 25.3814C63.5311 25.4831 61.7138 25.5735 60.8138 26.6382C60.5079 26.9978 60.36 27.4674 60.4046 27.938C60.5029 29.0829 61.4332 29.606 62.474 29.731C65.663 29.8376 66.4967 28.2472 66.6507 25.3472Z" fill="#1C1C1C"/>
<path d="M85.2756 11.0396L87.7274 11.0482L87.7242 19.0091C87.7242 20.7057 87.6868 22.5276 87.7854 24.2115C88.1915 23.7401 89.5115 22.4167 89.9697 21.9476C90.5273 21.3761 92.7219 18.9761 93.2395 18.6698C94.2417 18.6171 95.5295 18.6521 96.5543 18.6497C95.302 19.9264 93.9555 21.1744 92.6935 22.4524C92.0116 23.1433 91.3226 23.7168 90.6652 24.4581C92.029 25.8463 93.4038 27.4272 94.7277 28.8726L97.0577 31.3814C95.8685 31.3909 94.6536 31.4134 93.467 31.3695C92.2823 29.9584 91.0841 28.559 89.8724 27.1716C89.2034 26.4021 88.4022 25.524 87.7848 24.728C87.6443 26.5819 87.7248 29.4552 87.7255 31.3932L85.2666 31.4044L85.2756 11.0396Z" fill="#1C1C1C"/>
<path d="M78.0988 18.3307C79.9917 18.1245 82.2669 18.8509 83.4097 20.4363C82.8174 20.9267 82.2199 21.4102 81.6166 21.8866C80.9173 21.2085 80.189 20.5996 79.1874 20.5134C72.6318 19.9493 73.2358 30.8845 79.7256 29.4769C80.4494 29.3199 81.1242 28.8012 81.6901 28.3391L81.7571 28.2722C81.9962 28.3208 83.2086 29.5449 83.4787 29.8149C82.2064 30.991 81.2531 31.5397 79.4774 31.6962C77.558 31.8654 75.5793 31.4679 74.082 30.1915C72.7885 29.0671 71.9925 27.473 71.87 25.7599C71.5432 21.6498 73.9821 18.6581 78.0988 18.3307Z" fill="#1C1C1C"/>
<path d="M113.318 15.0088C114.136 15.0199 114.954 15.0211 115.772 15.0126C115.801 16.209 115.788 17.4697 115.795 18.6713C116.871 18.7102 118.075 18.6912 119.161 18.6977L119.159 20.7631C118.061 20.7967 116.907 20.783 115.8 20.7996C115.784 22.2138 115.776 23.628 115.778 25.0422C115.778 26.0298 115.732 27.1537 115.899 28.12C116.211 29.9279 117.766 29.5448 119.05 29.2569C119.08 29.6573 119.09 30.0914 119.107 30.4951L119.127 31.3281C116.829 31.8677 113.997 31.9308 113.427 29.0039C113.227 27.9763 113.306 26.7378 113.306 25.6822L113.305 20.7799C112.472 20.7867 111.638 20.7826 110.806 20.7675L110.807 18.6959L113.304 18.6777L113.318 15.0088Z" fill="#1C1C1C"/>
<path fill-rule="evenodd" clip-rule="evenodd" d="M123.347 10.9452C125.159 10.5913 126.914 11.7792 127.266 13.5975C127.617 15.4159 126.433 17.1768 124.621 17.5292C122.81 17.8812 121.057 16.6931 120.706 14.8758C120.354 13.0584 121.536 11.2988 123.347 10.9452ZM126.818 13.9081C126.629 12.3268 125.191 11.2034 123.618 11.4071C122.063 11.6083 120.962 13.0286 121.148 14.5897C121.335 16.151 122.739 17.2705 124.297 17.0975C125.874 16.9224 127.007 15.4894 126.818 13.9081Z" fill="#1C1C1C"/>
<path fill-rule="evenodd" clip-rule="evenodd" d="M122.346 12.1515C123.398 12.1497 125.939 11.8696 125.812 13.5109C125.769 14.0797 125.556 14.2812 125.146 14.6496L126.064 16.1594C125.838 16.1342 125.604 16.1231 125.377 16.1086L124.519 16.1008C124.319 15.5691 124.059 15.0624 123.744 14.591C123.679 15.016 123.686 15.6566 123.679 16.1066H122.354C122.359 14.7883 122.357 13.4698 122.346 12.1515ZM123.697 13.1847C123.688 13.3839 123.649 13.5972 123.768 13.7472C123.936 13.8344 124.172 13.766 124.368 13.7336C124.406 13.4765 124.442 13.5063 124.334 13.3C124.146 13.186 123.92 13.1971 123.697 13.1847Z" fill="#1C1C1C"/>
<path d="M38.7524 18.6545C39.573 18.6466 40.3937 18.6489 41.2142 18.6614L41.217 28.3416C41.2174 28.8091 41.2703 31.1661 41.1283 31.3902L38.7441 31.3974L38.7524 18.6545Z" fill="#1C1C1C"/>
<path d="M39.646 12.4356C41.9057 12.2917 42.5344 15.0682 40.2924 15.6131C39.8525 15.6476 39.446 15.6385 39.0627 15.4114C38.6976 15.1979 38.4361 14.8431 38.3395 14.4303C38.2387 14.0122 38.3066 13.571 38.5285 13.203C38.7939 12.7699 39.1671 12.5477 39.646 12.4356Z" fill="#1C1C1C"/>
</svg>
