<svg width="197" height="37" viewBox="0 0 197 37" fill="none" xmlns="http://www.w3.org/2000/svg">
<g clip-path="url(#clip0_343_1644)">
<g clip-path="url(#clip1_343_1644)">
<path d="M156.01 36.1122V36.4933H151.669C151.645 36.1144 151.615 35.7355 151.615 35.3566C151.598 27.6726 151.582 19.9864 151.567 12.2981C151.565 10.4231 151.559 8.54594 151.559 6.67095C151.561 6.23793 151.593 5.8049 151.593 5.37188C151.593 5.25063 151.52 5.12723 151.481 5.00598C151.448 5.00381 151.418 5.00381 151.385 4.99948C151.318 5.11206 151.234 5.216 151.186 5.33724C150.58 6.87664 149.982 8.4182 149.376 9.95327C148.406 12.3977 147.425 14.8378 146.453 17.2844C144.985 20.9716 143.515 24.6588 142.062 28.3524C141.069 30.8791 140.109 33.4188 139.122 35.9455C139.048 36.1339 138.953 36.3158 138.849 36.4933H132.692C132.668 36.463 132.648 36.4262 132.629 36.3829C132.369 35.7637 132.098 35.1488 131.852 34.5252C130.947 32.2562 130.046 29.9828 129.141 27.7116C128.437 25.9383 127.734 24.1629 127.026 22.3919C126.136 20.1661 125.244 17.9382 124.354 15.7147C123.36 13.2226 122.362 10.7327 121.37 8.2385C121.009 7.32915 120.671 6.40897 120.314 5.50179C120.251 5.3459 120.134 5.21166 120.041 5.06876C120.002 5.08608 119.967 5.1034 119.928 5.12289C119.922 5.28527 119.907 5.45199 119.907 5.61438C119.909 15.758 119.913 25.9037 119.915 36.0451C119.915 36.1967 119.9 36.3417 119.9 36.4955H115.566C115.557 36.45 115.548 36.3959 115.535 36.3288C115.496 36.1209 115.486 35.9066 115.486 35.6965C115.483 28.9587 115.479 22.2252 115.477 15.4916C115.475 10.5855 115.47 5.67933 115.47 0.775335C115.47 0.0760013 115.382 0.151779 116.092 0.151779C118.248 0.149614 120.402 0.149612 122.557 0.149612C123.031 0.147447 123.081 0.184257 123.252 0.619446C124.834 4.62925 126.422 8.63471 128 12.6467C129.455 16.3404 130.897 20.0384 132.352 23.7299C133.016 25.423 133.714 27.1032 134.378 28.7963C134.668 29.5368 134.926 30.2881 135.177 31.0415C135.288 31.3706 135.47 31.6283 135.796 31.8708C135.948 31.5633 136.106 31.2797 136.23 30.9809C137.039 28.9522 137.845 26.9191 138.65 24.8861C139.339 23.1453 140.016 21.4003 140.713 19.6617C141.716 17.1501 142.734 14.6472 143.732 12.1335C145.128 8.61739 146.507 5.09691 147.895 1.57859C148.049 1.19104 148.2 0.805645 148.354 0.422419C148.421 0.251375 148.54 0.162602 148.733 0.162602C151.028 0.153942 153.323 0.136622 155.616 0.130127C155.986 0.130127 156.004 0.164768 156.004 0.528508C156.006 12.3934 156.006 24.2561 156.006 36.1166L156.01 36.1122Z" fill="white"/>
<path d="M109.066 35.4172C108.211 33.4253 107.336 31.4399 106.457 29.4588C105.409 27.0945 104.361 24.7345 103.3 22.3746C102.77 21.1967 102.224 20.0254 101.648 18.8692C101.518 18.6029 101.533 18.434 101.722 18.2413C101.772 18.1916 101.817 18.1288 101.869 18.079C102.7 17.3103 103.291 16.362 103.848 15.3899C105.121 13.1641 105.534 10.8042 105 8.28616C104.445 5.70101 103.162 3.58351 101.007 2.00947C99.6519 1.01568 98.1796 0.325017 96.4886 0.201606C95.4732 0.130157 94.4556 0.115 93.438 0.11933C88.573 0.125825 83.7058 0.145308 78.8429 0.162628C78.0981 0.164794 78.1869 0.0890189 78.1869 0.810004C78.1869 5.64255 78.1934 10.4772 78.1934 15.3076C78.1955 22.0888 78.1934 28.8699 78.1955 35.6532C78.1955 35.9304 78.2432 36.2162 78.2951 36.4933H82.6146C82.6232 36.4132 82.6232 36.3049 82.6232 36.1599V21.2768C82.6232 20.6663 82.6232 20.6728 83.2446 20.6706C87.8953 20.6533 92.5503 20.6295 97.201 20.6165C97.3135 20.6143 97.4521 20.6793 97.5301 20.7616C97.6665 20.9088 97.7877 21.082 97.8678 21.2639C98.8421 23.4355 99.8034 25.6136 100.767 27.7874C101.657 29.7944 102.529 31.808 103.441 33.8064C103.852 34.7157 104.194 35.6641 104.794 36.4933H109.41C109.31 36.1274 109.211 35.7593 109.064 35.4172H109.066ZM97.5712 15.5436C96.8524 15.9398 96.0534 16.0091 95.2567 16.0178C92.6975 16.0503 90.134 16.0654 87.5727 16.0762C86.0571 16.0849 84.5437 16.0784 83.0259 16.0784C82.9155 16.0806 82.8051 16.0784 82.647 16.0784V4.62711C82.725 4.61845 82.7856 4.60329 82.8484 4.60329C87.0076 4.61411 91.1689 4.61845 95.3281 4.65309C95.9387 4.65958 96.5969 4.70721 97.1447 4.94321C98.9439 5.71616 100.091 7.09101 100.524 9.01797C101.124 11.7005 99.9182 14.238 97.5712 15.5414V15.5436Z" fill="white"/>
<path d="M30.2619 35.0902C30.5542 35.5341 30.7837 36.019 31.0261 36.4954H25.9316C25.7887 36.333 25.6653 36.1576 25.5441 35.9866C24.2147 34.0986 22.894 32.2084 21.5971 30.2966C20.337 28.4411 19.1093 26.5596 17.8687 24.689C17.4314 24.0265 17.0027 23.3596 16.5675 22.6949C16.509 22.604 16.4441 22.5152 16.3466 22.3745C16.1431 22.6646 15.9916 22.8681 15.8487 23.0825C15.4525 23.6714 15.0584 24.2624 14.6687 24.8579C13.2614 26.9948 11.8584 29.1296 10.4532 31.2666C9.48322 32.7411 8.52191 34.2155 7.53678 35.6813C7.34192 35.9692 7.11458 36.2377 6.87425 36.4954H0V0.184164C0.073614 0.177668 0.145063 0.162511 0.216512 0.162511C1.41815 0.156016 2.61979 0.153853 3.8236 0.151688C3.91454 0.151688 4.00764 0.166845 4.09857 0.166845C4.30642 0.16035 4.37137 0.270773 4.37137 0.459138C4.36488 0.920308 4.36921 1.38148 4.36921 1.84481C4.37571 11.6203 4.38004 21.3937 4.38437 31.1692V32.0504C4.41901 32.072 4.45148 32.0894 4.48396 32.1067C4.71563 31.8425 4.98194 31.6065 5.1703 31.3186C6.54299 29.2379 7.88969 27.1399 9.26238 25.0635C11.0205 22.3983 12.7894 19.7374 14.5712 17.0872C15.5867 15.5782 16.6454 14.1015 17.6609 12.5925C19.354 10.0679 21.0211 7.53258 22.7034 5.00372C23.5197 3.7761 24.3424 2.54848 25.1565 1.31652C25.3882 0.972269 25.6069 0.621518 25.8277 0.272934C25.9381 0.0975596 26.0832 0.0477642 26.2932 0.0520944C27.5338 0.06292 28.7701 0.0607504 30.0064 0.0542551C30.3117 0.0520899 30.6169 0.0131178 30.9201 0.000127085C31.0262 -0.00203803 31.1322 0.0239439 31.2773 0.0412649C31.1539 0.257777 31.0608 0.446143 30.9482 0.617187C29.9739 2.0873 28.9974 3.55742 28.0188 5.02321C26.0442 7.98292 24.0718 10.9405 22.095 13.8937C21.3308 15.039 20.5556 16.1757 19.7805 17.3146C19.6333 17.5333 19.4601 17.7433 19.302 17.9576C19.1461 18.1676 19.1483 18.3777 19.2934 18.5963C19.5922 19.0402 19.8845 19.4905 20.1811 19.9344C21.8027 22.3853 23.4244 24.834 25.0504 27.2785C26.7869 29.8831 28.5384 32.4769 30.2662 35.0902H30.2619Z" fill="white"/>
<path d="M54.4961 4.70705C54.429 4.88459 54.377 5.00584 54.3359 5.12708L49.1071 18.7738C48.031 21.4846 46.955 24.1974 45.8789 26.9082C45.0865 28.9087 44.2897 30.9093 43.4994 32.9077C43.1054 33.9145 42.7417 34.9321 42.3368 35.9324C42.2567 36.1272 42.1484 36.3135 42.0272 36.4953H37.4111C37.4544 36.2377 37.5064 35.9844 37.5952 35.744C38.0304 34.5792 38.5132 33.4295 38.9743 32.2733C39.8685 30.0368 40.7606 27.8002 41.6461 25.5593C42.4385 23.5522 43.2201 21.5387 44.0104 19.5295C45.1709 16.5849 46.3336 13.6447 47.4984 10.7001C48.2021 8.91604 48.9209 7.13848 49.6289 5.35009C50.2265 3.841 50.8132 2.32975 51.4043 0.816331C51.4151 0.79035 51.426 0.7622 51.4368 0.738383C51.6771 0.151636 51.6858 0.147311 52.3072 0.140815C53.7426 0.12999 55.1738 0.116994 56.6092 0.101838C56.8409 0.101838 57.0704 0.0866838 57.3021 0.0628674C57.59 0.036886 57.7849 0.153803 57.8975 0.415783C58.1097 0.915925 58.3305 1.4139 58.5297 1.91838C59.714 4.87809 60.894 7.83565 62.0653 10.7975C63.3558 14.0582 64.6267 17.3275 65.9257 20.5882C67.1837 23.7514 68.4763 26.906 69.7342 30.0693C70.5071 32.007 71.2498 33.9578 71.9859 35.9064C72.0574 36.0948 72.105 36.294 72.1461 36.4932H67.5323C67.227 35.8285 66.9022 35.1724 66.6207 34.5012C66.0405 33.1047 65.4841 31.6953 64.932 30.2901C64.1417 28.2809 63.3644 26.2695 62.5741 24.2602C61.8726 22.474 61.1625 20.6921 60.4523 18.9102C59.7487 17.1348 59.0407 15.3616 58.3348 13.5884L54.4983 4.70488L54.4961 4.70705Z" fill="white"/>
<path d="M197 36.4953H192.192C192.192 36.4953 192.189 36.4867 192.185 36.4845C191.997 36.0558 191.832 35.6141 191.655 35.179C191.157 33.9492 190.648 32.7194 190.159 31.4853C189.44 29.6774 188.732 27.8673 188.013 26.0595C187.539 24.8665 187.043 23.6843 186.569 22.4935C185.859 20.7116 185.157 18.9254 184.451 17.1413C183.75 15.3789 183.024 13.6209 182.342 11.8476C181.533 9.73883 180.753 7.61701 179.954 5.50386C179.844 5.21373 179.699 4.93876 179.569 4.65729C179.539 4.66596 179.513 4.67245 179.482 4.67895C178.902 6.0971 178.313 7.50659 177.748 8.93124C176.029 13.2636 174.325 17.6025 172.606 21.9349C171.062 25.8235 169.512 29.7077 167.957 33.5898C167.611 34.4558 167.256 35.3175 166.894 36.1749C166.847 36.2853 166.79 36.3914 166.728 36.4953H162.049C162.075 36.3286 162.107 36.1662 162.168 36.0169C163.001 33.8777 163.863 31.7494 164.712 29.6168C165.429 27.8175 166.141 26.0162 166.858 24.2148C168.159 20.9606 169.464 17.7043 170.763 14.4501C171.818 11.8108 172.877 9.17157 173.909 6.52579C174.652 4.61832 175.353 2.69353 176.072 0.777401C176.22 0.379019 176.475 0.149518 176.915 0.149518C177.841 0.149518 178.766 0.151688 179.69 0.140862C180.383 0.130036 181.078 0.0932254 181.771 0.0759045C182.451 0.0585835 182.559 0.132198 182.804 0.760083C183.642 2.89056 184.466 5.0232 185.313 7.15151C186.482 10.0961 187.671 13.0276 188.84 15.9722C190.271 19.5728 191.683 23.182 193.116 26.787C194.03 29.0863 194.959 31.377 195.879 33.6742L196.998 36.4975L197 36.4953Z" fill="white"/>
</g>
</g>
<defs>
<clipPath id="clip0_343_1644">
<rect width="197" height="37" fill="white"/>
</clipPath>
<clipPath id="clip1_343_1644">
<rect width="197" height="37" fill="white"/>
</clipPath>
</defs>
</svg>
