<svg width="48" height="56" viewBox="0 0 48 56" fill="none" xmlns="http://www.w3.org/2000/svg">
<g clip-path="url(#clip0_343_1619)">
<g clip-path="url(#clip1_343_1619)">
<path d="M47.7845 32.2611C47.7087 32.3044 47.2421 32.5279 47.1124 32.578C46.1609 33.0024 45.307 32.9323 44.355 32.3723C43.671 31.9702 43.0362 31.0854 42.7878 30.7746C42.5916 30.5295 42.3543 30.2084 42.0137 29.9039C41.3814 29.3353 40.526 28.9607 39.0457 28.9881C38.9266 28.9903 38.809 28.9631 38.7038 28.9074C37.2082 28.1165 34.6317 27.1521 32.1691 27.2762C31.681 27.309 31.6109 26.9542 31.4498 26.5569C31.002 25.3602 30.6757 24.806 30.3717 24.3722C29.9847 23.8202 29.8148 23.8159 29.494 23.7258C29.1368 23.6255 28.7497 23.5876 28.5122 23.1736C28.4831 23.1228 28.3666 22.9038 28.4986 22.7497C28.8256 22.3685 29.7324 21.8438 28.3702 21.0747C27.5396 20.6058 27.9095 20.3042 28.0476 20.2331C28.2387 20.1345 28.5683 20.0567 28.9625 20.1352C29.3566 20.2138 29.8153 20.4487 30.2647 20.9751C30.709 21.4955 32.2087 23.9238 33.12 25.7674C33.1322 25.7923 33.1521 25.925 33.3198 25.9413C33.5739 25.966 34.0094 25.9666 34.0985 25.9743C34.239 25.9862 34.2407 25.873 34.2269 25.827C32.9348 21.5394 31.4487 16.2033 28.8695 12.4905C28.817 12.3839 28.862 12.2724 29.0246 12.2885C31.3328 12.5249 32.0025 15.8097 33.3551 17.9674C35.0929 20.7413 36.1118 19.6543 36.2766 17.7833C36.3918 16.4754 36.0468 14.8108 35.1355 13.8775C34.9188 13.6138 34.5351 13.2798 34.3746 13.0823C34.317 13.0113 34.3084 12.8919 34.4617 12.8537C34.5249 12.8379 34.6153 12.8316 34.7383 12.8361C35.8051 12.9181 37.2871 13.7814 37.9098 14.7426C39.1876 16.7153 39.0923 17.7756 38.9172 18.4747C38.6176 19.6706 38.0587 20.358 38.7516 22.249C40.123 25.992 39.7643 25.2111 38.9838 27.5655C38.9168 27.7444 39.0266 27.8778 39.181 27.8636C40.9768 27.6989 41.5254 28.1055 41.9131 28.3132C41.9524 28.3343 41.9862 28.3665 42.0137 28.3604C42.0825 28.3361 42.1071 28.2492 42.119 28.1322C42.2664 27.1221 42.056 26.6954 41.8256 26.1002C41.6905 25.7506 41.5373 25.3566 41.489 24.9727C41.4107 24.4799 41.4998 24.2026 41.6482 23.8339C41.901 23.2054 42.0518 22.7184 41.8463 21.7726C41.3922 19.7765 39.7562 16.4898 38.7112 14.5968C38.6247 14.4334 37.9089 13.0816 37.7966 12.8838C37.7199 12.7486 37.7524 12.5839 37.8095 12.4559C37.857 12.3497 37.9356 12.1368 37.9356 12.1368C38.1852 11.5007 38.3175 11.0149 38.3925 10.4598C38.6346 8.66966 38.1654 7.39618 36.8705 6.33083C35.6689 5.3421 33.5286 4.90439 30.6785 5.06496L30.0752 5.0992C27.391 5.25242 24.3487 5.42609 22.0593 5.23679C19.843 5.0536 18.5487 4.703 18.1019 4.16486C17.957 3.99012 17.9009 3.79666 17.9257 3.55565C17.9754 3.07395 18.2671 2.59482 18.7259 2.24124C19.1228 1.9353 19.5921 1.77073 19.9243 1.82274C20.5206 1.84708 21.1746 2.18274 21.9318 2.57142C22.6101 2.91971 23.379 3.31438 24.2732 3.57137C25.0292 3.78873 25.7775 3.88506 26.4962 3.85765C27.1745 3.83177 27.8388 3.68982 28.4707 3.43548C28.7379 3.32786 28.93 3.20454 29.0134 3.13169C29.0565 3.09402 29.0726 3.01895 29.0205 2.94875C28.9894 2.90655 28.9502 2.90681 28.8116 2.90673C27.8599 2.90655 27.0124 2.75667 26.4742 2.63052C25.8791 2.4802 25.8279 2.33587 25.8335 2.28078C25.8465 2.15327 26.1602 2.03199 26.5186 2.01593C28.2747 1.93702 29.6194 2.03207 30.5093 2.09468C30.8126 2.11611 31.0522 2.13303 31.2252 2.13652C31.4023 2.14012 31.6353 2.13337 31.6449 2.13226C31.6979 2.12713 31.7133 2.09331 31.7174 2.07905C31.7273 2.04514 31.7119 2.00491 31.6921 1.9892C31.073 1.47804 29.0615 0.70656 26.7671 0.300197C23.0754 -0.353681 20.6023 0.182842 19.1779 0.748412C18.8942 0.860972 18.1642 1.17724 17.5151 1.68028C16.7997 2.23466 16.4004 2.83882 16.3284 3.47562C16.2322 4.32806 16.8508 5.42932 20.3449 5.83433C24.0443 6.26326 27.5006 6.20215 30.5497 6.14871C30.8685 6.14303 31.1811 6.13763 31.4871 6.13283C33.4187 6.10471 35.0535 6.56972 35.7547 7.35145C36.5625 8.25188 36.6106 9.45742 36.4063 10.216C36.3474 10.4346 36.2274 10.7639 36.0836 10.9723C35.8618 11.2725 35.6185 11.3639 35.1714 11.2458C33.744 10.8687 31.1977 10.0298 29.9632 9.61323C28.8637 9.24209 27.9953 8.94892 27.2589 8.76837C25.0726 8.23262 24.39 8.58738 22.9224 9.51495C22.5686 9.73834 22.2089 9.98332 21.7924 10.2668C21.19 10.677 20.5071 11.142 19.5988 11.709C19.051 12.051 18.3328 12.4462 17.5724 12.8645C16.7993 13.29 15.9998 13.7299 15.2167 14.1992C12.705 15.6735 12.3041 17.6503 11.8402 19.9392C11.5108 21.5634 11.1376 23.4042 9.89711 25.2683C9.76117 25.4729 8.68585 26.777 8.45711 27.1472C7.60745 28.5131 7.15089 29.6918 7.33089 31.6738C7.46554 33.1555 6.95852 34.4453 6.46849 35.6927C6.08258 36.6743 5.71833 37.6015 5.65817 38.5945C5.61277 39.2084 5.63486 39.7822 5.65633 40.3372C5.69196 41.2578 5.70566 42.1754 5.4247 42.9703C5.20896 43.5804 4.6618 44.1811 4.44955 44.7716C4.17662 45.5305 3.9855 46.6105 3.9855 47.6023C3.9683 48.4378 3.34753 49.052 2.69054 49.7025C2.11143 50.2756 1.50543 50.8777 1.285 51.6571C1.25561 51.7609 1.23606 51.8398 1.1977 51.9017C1.14047 51.9939 1.05481 52.0529 0.939932 52.1345C0.717779 52.2923 0.449163 52.4999 0.155691 53.09C-0.0919968 53.5882 -0.0208483 54.4766 0.205745 54.9084C0.240677 54.975 0.338307 55.1319 0.488452 55.1491C0.590176 55.1609 0.692412 55.1068 0.793459 54.9894C0.793459 54.9894 1.43514 54.2469 1.68523 54.0242C1.77294 53.9483 1.87741 53.9622 1.93711 54.0069C2.00757 54.0599 2.02362 54.1482 1.98007 54.2436C1.95462 54.2989 1.56779 54.9877 1.34179 55.5682L1.33649 55.5827C1.30575 55.665 1.26766 55.7674 1.32249 55.8524C1.37587 55.9349 1.50151 55.9801 1.71871 55.9945C1.81446 55.9982 1.90679 56 1.99612 56C3.18522 56 3.81054 55.6841 4.13201 55.4061C4.25747 55.2719 4.28244 55.2139 4.32374 55.1176C4.33465 55.0925 4.3467 55.0642 4.36329 55.0283C4.60112 54.3905 4.76063 53.6532 4.77949 53.103C4.77949 52.8698 4.84567 52.8035 5.00597 52.6432C5.63198 52.0116 5.63258 51.1774 5.63329 50.3703C5.6339 49.6287 5.63442 48.8617 6.12213 48.2571C7.452 46.769 8.14308 45.0295 8.81151 43.3475C9.5008 41.6121 10.2137 39.8177 11.6286 38.3212C11.9851 37.955 12.3346 37.7554 12.5652 37.7926C12.6778 37.8097 12.7671 37.882 12.831 38.0083C13.1338 38.5684 13.0428 39.3216 12.9546 40.0503C12.855 40.8739 12.7609 41.6519 13.1974 42.1603C13.4889 42.5381 13.5676 42.9361 13.4241 43.3132C13.2377 43.9088 12.6705 45.7214 11.3181 46.5236C11.2854 46.5429 10.9292 46.7967 10.8178 46.9045C10.7596 46.961 10.717 47.0369 10.6679 47.1247C10.5494 47.3361 10.4021 47.5991 9.93729 47.7365C9.42825 47.8647 8.94929 48.1737 8.68769 48.5436C7.97237 49.5538 8.00314 50.8049 8.07034 51.1635C8.09643 51.3026 8.14332 51.4854 8.27649 51.6668C8.35766 51.7778 8.452 51.8438 8.54917 51.8577C8.62905 51.8692 8.70886 51.8461 8.78437 51.7887C8.86314 51.7286 8.95612 51.6211 9.07378 51.4847C9.25852 51.271 9.48831 51.0049 9.77803 50.7922C9.87083 50.7241 9.96222 50.7399 10.0166 50.7778C10.0674 50.8133 10.0908 50.8697 10.076 50.9217C10.049 51.0159 9.96277 51.1519 9.85311 51.3242C9.71422 51.543 9.54123 51.8153 9.40486 52.1363C9.37102 52.2078 9.36671 52.2738 9.39194 52.3323C9.43114 52.4234 9.52855 52.4612 9.55785 52.4707C10.4186 52.7453 11.7044 52.4192 12.424 51.7431C12.7849 51.4038 12.9604 50.9544 12.9604 50.369C12.9604 50.2205 13.0311 49.9898 13.1848 49.8362C13.6918 49.4022 13.9017 48.7248 14.1239 48.0075C14.1767 47.8372 14.2314 47.6609 14.2904 47.487C14.5199 46.8113 14.8225 46.2306 15.5532 45.5915C16.5014 44.7053 16.9298 43.8691 17.2002 43.3539C17.4755 42.7996 17.5358 42.4903 17.7369 42.1671C18.1326 41.5429 19.4684 41.4252 19.9618 41.7164C20.1665 41.8374 20.212 42.0046 20.0974 42.2138C20.0225 42.3494 19.3179 43.4895 18.9864 44.2686C18.8237 44.6509 18.4557 44.7937 18.2367 44.9219C16.9138 45.6951 16.6726 47.1515 16.634 47.7483C16.6221 47.9346 16.6426 48.1829 16.7365 48.3214C16.7908 48.4015 16.8669 48.4532 16.9505 48.4667C17.0332 48.4802 17.1179 48.4562 17.1954 48.397C17.2726 48.3381 17.9888 47.6151 18.0746 47.54C18.193 47.4362 18.2971 47.4535 18.3499 47.5004C18.4062 47.5499 18.4297 47.6486 18.3561 47.7575C18.2564 47.905 17.7618 48.6498 17.8197 48.8129C17.9179 49.0887 18.1993 49.0834 18.4812 49.086C20.7508 48.8934 21.5532 47.2782 21.5532 47.2782C21.6082 47.1841 21.6764 47.06 21.6404 46.7239C21.5755 46.118 21.4324 44.0182 22.6465 42.7107C23.0077 42.3099 23.2195 42.5806 23.3015 42.7596C23.4484 43.081 23.6657 43.6376 23.7893 43.9168C24.0516 44.5092 24.2309 44.9466 24.533 45.5329C25.043 46.5223 25.8094 46.6591 26.7578 46.54C27.9841 46.3859 28.8297 46.4845 29.6537 46.5655C30.3536 46.6238 30.7405 46.6708 31.2547 46.2006C31.5351 45.9443 32.0727 45.475 32.434 44.9643C32.6628 44.6412 32.7337 44.4367 32.6759 43.934C32.5062 41.41 33.8188 39.2172 36.1851 38.0692C36.5401 37.9256 36.9345 37.9696 37.1754 38.2934C37.7063 39.0808 38.9409 41.0966 38.9409 42.8076C38.9409 42.9691 38.8772 43.1471 38.8036 43.353C38.6362 43.8207 38.4281 44.4024 38.8149 45.1962C38.839 45.8832 38.5846 46.4197 38.3601 46.8931C38.0403 47.5671 37.7879 48.0994 38.6624 48.6238C38.9097 48.7717 39.2303 48.9045 39.6427 49.0294C39.667 49.0367 39.6911 49.0404 39.7138 49.0404C39.7495 49.0404 39.7823 49.0316 39.8089 49.0144C39.8391 48.9946 39.8578 48.966 39.8617 48.934C39.8858 48.7361 39.9092 48.0494 39.9463 47.8874C39.9611 47.8228 39.9945 47.745 40.069 47.7405C40.1383 47.7365 40.2076 47.793 40.2272 47.848C40.2969 48.0131 40.4748 48.6848 40.5239 48.7914C40.566 48.8831 40.6158 48.9455 40.6829 48.965C41.0337 49.0662 41.5127 48.4634 41.6918 48.1529C42.0011 47.5134 41.8742 46.5628 41.3702 45.7345C41.2961 45.5754 41.2855 45.5114 41.2846 45.3667C41.471 44.6128 41.3353 44.231 41.1916 43.8268C41.1088 43.5936 41.0252 43.3523 40.9875 43.0215C40.8518 41.8343 41.5784 38.0767 41.6467 37.6906C41.7702 36.9916 41.8726 36.493 41.9169 35.9797C41.9598 35.483 41.7564 34.9012 41.4109 34.5319C41.0941 34.1936 40.7122 33.8835 40.3431 33.5836C40.0176 33.3191 39.7099 33.0693 39.4585 32.8118C39.0516 32.395 38.922 31.787 38.9257 31.6153C38.9272 31.5689 38.9357 31.5391 38.952 31.5244C38.9647 31.5128 38.9854 31.5084 39.0154 31.5105C39.5758 31.5507 40.0242 31.9222 40.592 32.3922C41.1001 32.813 41.6761 33.2901 42.483 33.6479C44.077 34.355 45.5901 34.2505 47.11 33.3285C47.7561 32.8703 47.9558 32.4774 47.9879 32.4228C48.0283 32.3542 47.9695 32.1553 47.7845 32.2611ZM12.4603 25.956C12.5528 25.2209 13.0956 24.4375 13.3337 23.5193C13.673 22.4828 13.7668 20.6714 13.9512 19.2353C14.0431 18.5196 14.3168 18.2167 14.8337 18.1532C15.175 18.1225 15.5306 18.4194 15.714 19.4306C16.3498 23.5714 17.5935 24.1442 18.3159 25.2409C18.329 25.2607 18.3415 25.2814 18.3526 25.3023C18.5377 25.6461 18.5969 25.9662 18.3067 26.1984C18.1364 26.3346 17.5702 26.5383 16.6071 25.9576C15.4515 25.2609 15.2772 24.5105 13.3614 26.0435C13.3614 26.0435 13.1049 26.2426 12.8591 26.2974C12.6511 26.3438 12.4217 26.263 12.4603 25.956ZM22.4902 41.1465C22.4212 41.1894 22.3437 41.1601 22.2313 41.0883C21.4703 40.6018 19.3612 40.2181 17.5809 40.9313C15.7492 41.6653 14.0716 42.7017 13.9593 40.8902C13.937 39.2849 14.2791 38.5855 13.7208 37.6303C13.7208 37.6303 13.697 37.598 13.6724 37.559C13.6243 37.483 13.6826 37.4663 13.7008 37.4648C16.2737 37.2637 16.9604 36.4597 17.1208 36.1784C17.156 36.1166 17.1097 36.05 17.0442 36.0427C16.4532 35.9773 13.5064 35.8888 12.3214 36.0602C10.2371 36.3615 8.83711 39.5006 8.56634 39.7972C8.2536 40.14 7.8592 39.8777 7.8592 39.5653C7.8592 39.0415 8.16849 36.4993 8.37385 35.6179C8.69895 34.2226 9.14702 33.186 10.5082 32.9766C11.4622 32.8298 13.803 32.5819 13.642 31.9483C13.5083 31.4244 13.4418 31.0146 13.4404 30.783C13.4387 30.4734 13.597 30.4115 13.9105 30.4811C14.1422 30.5326 14.4527 30.6702 14.8508 30.7638C17.7957 31.4567 19.3045 30.9048 21.0596 30.1249C21.1092 30.1028 21.762 29.8093 21.8017 29.7871C22.118 29.611 22.5154 29.9292 22.3394 30.3055C22.2463 30.5049 22.12 30.597 21.8498 30.8572C21.2703 31.4154 19.1079 33.1878 20.4105 36.1841C21.4262 38.5203 21.7217 39.1251 22.4423 40.7185C22.559 40.9766 22.5759 41.0931 22.4902 41.1465ZM27.9649 45.1889C27.8213 45.4122 27.6001 45.5709 27.1697 45.5709C26.6407 45.5709 26.2663 45.4124 26.0418 45.1732C25.5813 44.6822 25.5239 44.0102 25.6367 43.57C25.7081 43.2914 25.8754 43.1081 26.0549 43.055C26.1336 43.0287 26.1761 43.0347 26.2151 43.0854C26.295 43.2135 26.5809 43.6663 26.6468 43.7604C26.724 43.8704 26.8638 43.9674 26.9778 44.013C27.1929 44.0991 27.4674 44.1738 27.6125 44.2398C28.0566 44.4315 28.159 44.8873 27.9649 45.1889ZM36.4556 36.9274C36.3997 37.0182 36.3497 37.0327 36.2748 37.067C33.6071 38.0761 31.4865 40.7993 31.8712 44.0713C31.8788 44.2422 31.8255 44.4818 31.6646 44.6428C31.6646 44.6428 31.1047 45.2116 30.7522 45.4539C30.6319 45.5367 30.4962 45.6042 30.1814 45.584C29.688 45.5525 28.9931 45.5087 28.9931 45.5087C28.8066 45.4776 28.8864 45.3155 28.9006 45.28C28.9138 45.2462 28.9268 45.2068 28.9369 45.1611C29.038 44.6701 28.9658 43.9823 28.2758 43.7249C28.1766 43.669 28.2388 43.578 28.2508 43.5483C28.547 42.8188 28.9175 41.9159 29.2148 40.65C29.3945 39.8847 29.2842 39.423 29.0158 38.8727C28.9564 38.7508 28.8786 38.6382 28.7902 38.5356L28.3705 37.9792C28.2535 37.8436 28.2841 37.7006 28.4529 37.6404L29.0444 37.4896C29.1887 37.4381 29.1749 37.2192 29.0359 37.1841L28.7306 37.0863C28.4418 36.9674 28.2659 36.7369 28.1363 36.559C28.115 36.5297 28.0777 36.4706 28.0422 36.4065C27.9774 36.2892 27.9303 36.1628 27.9032 36.0314L27.8677 35.8586C27.8638 35.7708 27.7254 35.7697 27.6649 35.8303C27.1983 36.2988 27.054 37.0183 27.3966 37.59C27.8767 38.391 27.8573 38.3121 28.2849 38.9178C28.4263 39.1179 28.5108 39.2807 28.5575 39.4786C28.6221 39.7519 28.6037 40.4447 28.4206 40.9392L27.9351 42.4135C27.6422 43.0729 27.3153 42.914 27.1298 42.7906C26.8906 42.6317 26.6678 42.2196 26.547 41.7825C26.547 41.7825 26.2132 40.5518 26.2247 38.9159C26.2025 38.7182 26.0679 38.3951 25.6386 38.6779L24.4967 39.6255C24.3354 39.7113 24.0557 39.6644 24.1123 39.2929C24.1123 39.2929 24.933 35.632 25.8169 33.5696C26.4804 31.8874 25.7418 30.9392 24.8612 29.8977C23.4227 28.0621 23.1004 25.5929 26.4501 26.9455C27.3495 27.3567 27.671 26.8236 28.7804 26.7275C29.5762 26.6587 29.8379 26.9807 29.9059 27.117C29.9666 27.2388 29.9876 27.3735 29.9947 27.4441C29.9978 27.4747 29.9876 27.495 29.9541 27.4954C28.0761 27.6022 25.835 29.1623 27.5658 31.6102C29.2654 34.0084 33.9425 34.8148 36.0313 32.5282C36.0588 32.4976 36.0659 32.4287 36.0239 32.3939C36.0023 32.3759 35.9654 32.3593 35.9167 32.3777C35.46 32.5508 35.0396 32.6815 34.6177 32.7509C33.6199 32.915 31.5058 32.7952 30.5065 31.6548C29.9347 31.0025 29.95 30.2492 30.9165 30.1341C31.4546 30.0909 31.7179 30.1898 31.951 30.1942C32.5537 30.1861 32.6774 29.5832 32.5533 29.3106C32.4499 29.0495 32.2097 28.7337 31.872 28.4592C31.5602 28.2375 31.7289 28.0056 31.9316 28.0112C33.8663 28.1214 35.7157 28.4562 36.4133 30.7782C36.44 30.8652 36.4873 31.1586 36.5612 31.2682C36.711 31.4903 36.9714 31.657 37.2583 31.9073C37.9605 32.5194 38.5905 33.6109 36.4556 36.9274ZM38.9686 35.4916C39.3083 34.781 39.7697 35.2576 39.9897 36.0375C40.2692 37.0283 40.3094 38.6224 40.1915 39.4444C40.0378 40.5168 39.5335 40.302 39.2639 39.9207C38.838 39.3184 38.377 38.5167 38.0559 37.9665C38.0461 37.9498 38.0368 37.9328 38.0284 37.9152C37.8791 37.6059 37.8567 37.3609 38.0132 37.1311C38.1742 36.8841 38.8124 35.8182 38.9686 35.4916Z" fill="white"/>
</g>
</g>
<defs>
<clipPath id="clip0_343_1619">
<rect width="48" height="56" fill="white"/>
</clipPath>
<clipPath id="clip1_343_1619">
<rect width="48" height="56" fill="white"/>
</clipPath>
</defs>
</svg>
