<svg width="56" height="56" viewBox="0 0 56 56" fill="none" xmlns="http://www.w3.org/2000/svg">
<g clip-path="url(#clip0_344_1903)">
<path d="M28.0004 0C12.5362 0 0 12.5362 0 28.0004C0 43.4646 12.5362 56.0008 28.0004 56.0008C43.4646 56.0008 56.0008 43.4646 56.0008 28.0004C56.0008 12.5362 43.4646 0 28.0004 0ZM28.0004 54.7972C13.2008 54.7972 1.20357 42.8 1.20357 28.0004C1.20357 13.2008 13.2008 1.20279 28.0004 1.20279C42.8 1.20279 54.7972 13.2 54.7972 27.9996C54.7972 42.7992 42.8 54.7964 28.0004 54.7964V54.7972Z" fill="#929292"/>
<path d="M27.5997 17.1455V16.1934H27.4646C27.0843 16.1934 26.7253 16.3395 26.4527 16.605L24.1304 18.9273H25.8187C25.9844 18.0246 26.697 17.3113 27.6005 17.1455H27.5997Z" fill="#929292"/>
<path d="M30.8256 21.0939C30.8256 20.3413 30.212 19.7285 29.4586 19.7285H28.4004V20.6878C28.5245 20.6508 28.6408 20.5974 28.7484 20.5299H29.864C29.5372 21.0342 29.0124 21.398 28.4004 21.5103V22.457H29.4586C30.212 22.457 30.8256 21.8458 30.8256 21.0939Z" fill="#929292"/>
<path d="M26.5825 19.3279C26.5825 19.9706 27.0123 20.5134 27.5999 20.6871V17.968C27.013 18.1416 26.5825 18.6845 26.5825 19.3271V19.3279Z" fill="#929292"/>
<path d="M30.8256 17.5603C30.8256 16.8069 30.212 16.1934 29.4586 16.1934H28.4004V17.1455C29.0124 17.2579 29.538 17.6216 29.864 18.126H28.7484C28.6408 18.0584 28.5245 18.005 28.4004 17.9681V18.9273H29.4586C30.212 18.9273 30.8256 18.3145 30.8256 17.5603Z" fill="#929292"/>
<path d="M49.0144 28.3343C49.0144 28.3343 37.2238 14.5262 34.423 11.7215L34.4152 11.7136C32.7693 10.0701 30.5043 9.05273 28.0005 9.05273C25.4968 9.05273 23.2185 10.0701 21.5726 11.7136C21.5726 11.7136 21.571 11.7152 21.5655 11.7207C18.7491 14.5073 6.9867 28.3343 6.9867 28.3343C6.03138 29.5677 5.46338 31.1162 5.46338 32.7974C5.46338 33.0881 5.48145 33.3748 5.51444 33.6561C5.76427 35.7867 6.93092 37.6368 8.61058 38.8004C8.61058 38.8004 13.5702 42.668 28.0555 42.668C42.5409 42.668 47.3921 38.8004 47.3921 38.8004C49.0427 37.6573 50.1975 35.8511 50.4749 33.7669C50.5173 33.4495 50.5393 33.1258 50.5393 32.7974C50.5393 31.1162 49.9705 29.5677 49.016 28.3343H49.0144ZM15.2271 36.4875H9.8668V29.138H11.4624V34.9437H15.4141L15.2271 36.4875ZM19.9958 36.5998C17.9006 36.5998 16.2013 34.9013 16.2013 32.8053C16.2013 30.7092 17.8998 29.0115 19.9958 29.0115C22.0919 29.0115 23.7904 30.71 23.7904 32.8053C23.7904 34.9005 22.0919 36.5998 19.9958 36.5998ZM28.7987 30.6707V36.4875H27.2031V30.6707H24.8353L25.0215 29.138H30.9898L31.1753 30.6707H28.7995H28.7987ZM27.9974 25.5634C25.1527 25.5634 22.7526 23.6575 22.0055 21.0523L19.8356 23.2222H18.7019L21.8122 20.1119C21.78 19.8558 21.7635 19.595 21.7635 19.3303C21.7635 15.8877 24.554 13.0971 27.9966 13.0971C30.601 13.0971 32.8313 14.6935 33.7639 16.9616H32.8871C32.0064 15.1515 30.1492 13.904 28.0013 13.904C25.0018 13.904 22.5703 16.3355 22.5703 19.335C22.5703 19.3413 22.5703 19.3475 22.5703 19.3538L25.8888 16.0354C26.3154 15.6198 26.8732 15.3927 27.4632 15.3927H29.4579C30.6536 15.3927 31.6262 16.3653 31.6262 17.561C31.6262 18.2893 31.2648 18.9351 30.7125 19.3287C31.2648 19.7215 31.6262 20.3673 31.6262 21.0948C31.6262 22.2881 30.6536 23.2592 29.4579 23.2592H27.5983V21.5111C26.6956 21.3454 25.9823 20.632 25.8165 19.7294H23.3269L22.674 20.3822L22.6709 20.3853C23.1603 22.8821 25.3601 24.766 28.0005 24.766C30.1382 24.766 31.9876 23.531 32.8738 21.7358H33.7482C32.807 23.9843 30.586 25.5634 27.9958 25.5634H27.9974ZM39.3937 33.3293C39.3937 35.1354 37.9293 36.5998 36.1231 36.5998C34.317 36.5998 32.8526 35.1354 32.8526 33.3293V29.138H34.4395V33.3285C34.4395 34.2587 35.1937 35.0121 36.1231 35.0121C37.0525 35.0121 37.8067 34.2579 37.8067 33.3285V29.1372H39.3937V33.3285V33.3293ZM46.6591 35.4748C46.4344 35.8197 46.0974 36.0939 45.6488 36.2958C45.1994 36.4977 44.6534 36.599 44.01 36.599C43.4538 36.599 42.9156 36.5205 42.3963 36.3641C41.9784 36.2376 41.628 36.0805 41.3428 35.8935L41.5306 34.3419L41.6979 34.4763C41.9996 34.7065 42.3578 34.8911 42.7734 35.0301C43.189 35.17 43.6046 35.2391 44.0202 35.2391C44.4829 35.2391 44.8247 35.1676 45.0454 35.0246C45.267 34.8817 45.377 34.6915 45.377 34.4551C45.377 34.2807 45.3118 34.1361 45.1806 34.0214C45.0501 33.9067 44.882 33.814 44.6778 33.7441C44.4735 33.6742 44.197 33.598 43.8481 33.5139C43.3116 33.3819 42.8732 33.2491 42.5314 33.1164C42.1897 32.9844 41.8966 32.7715 41.6515 32.4784C41.4064 32.1854 41.2846 31.7957 41.2846 31.3071C41.2846 30.8821 41.3954 30.4971 41.6162 30.1514C41.8377 29.8065 42.1708 29.5331 42.6163 29.3304C43.0617 29.1285 43.607 29.0272 44.2504 29.0272C44.6998 29.0272 45.1381 29.083 45.5671 29.1945C45.996 29.3061 46.3716 29.4664 46.6929 29.6753L46.1901 30.9614C45.5396 30.578 44.8899 30.3863 44.2394 30.3863C43.7837 30.3863 43.4467 30.4633 43.2291 30.6165C43.0114 30.7697 42.9023 30.9724 42.9023 31.223C42.9023 31.4736 43.0279 31.6606 43.2793 31.7824C43.5307 31.9042 43.9141 32.0244 44.4303 32.143C44.9661 32.2758 45.4052 32.4077 45.747 32.5405C46.0887 32.6733 46.3818 32.8823 46.6269 33.1682C46.8712 33.4542 46.9938 33.8407 46.9938 34.3286C46.9938 34.7465 46.8814 35.1283 46.6567 35.4732L46.6591 35.4748Z" fill="#929292"/>
<path d="M19.9955 35.0843C21.2573 35.0843 22.2801 34.0615 22.2801 32.7997C22.2801 31.538 21.2573 30.5151 19.9955 30.5151C18.7338 30.5151 17.7109 31.538 17.7109 32.7997C17.7109 34.0615 18.7338 35.0843 19.9955 35.0843Z" fill="#929292"/>
</g>
<defs>
<clipPath id="clip0_344_1903">
<rect width="56" height="56" fill="white"/>
</clipPath>
</defs>
</svg>
