<svg width="226" height="27" viewBox="0 0 226 27" fill="none" xmlns="http://www.w3.org/2000/svg">
<g clip-path="url(#clip0_343_1607)">
<g clip-path="url(#clip1_343_1607)">
<path d="M225.996 13.9081C225.738 14.6448 225.33 15.3126 224.803 15.8647C224.275 16.4167 223.639 16.8396 222.941 17.1036C220.503 18.2657 217.948 19.1312 215.326 19.6835C210.556 20.822 205.731 21.6908 200.874 22.286C196.277 22.8715 191.675 23.4224 187.067 23.895C183.204 24.2924 179.332 24.5965 175.459 24.8674C170.152 25.2377 164.843 25.5678 159.532 25.8578C155.117 26.0941 150.697 26.3094 146.278 26.4027C135.087 26.633 123.897 26.8723 112.705 26.94C104.597 26.9897 96.4881 26.7895 88.3806 26.6571C84.6617 26.5969 80.9433 26.483 77.2254 26.3154C70.9825 26.0434 64.741 25.7374 58.501 25.3972C54.3627 25.1674 50.2282 24.8794 46.0975 24.5332C41.9195 24.1855 37.7429 23.7987 33.5776 23.3291C29.3172 22.8434 25.0625 22.2845 20.8135 21.6523C15.9087 21.013 11.0633 19.9385 6.32811 18.4402C4.97206 17.9576 3.64872 17.3772 2.36736 16.7032C1.80296 16.4508 1.29812 16.0693 0.888889 15.5861C0.479659 15.103 0.176137 14.53 0 13.9081V13.0817C0.244592 12.3674 0.632783 11.7179 1.13768 11.1784C1.64258 10.6388 2.25211 10.2221 2.92405 9.95694C5.2773 8.80483 7.74878 7.94614 10.2889 7.39812C15.167 6.21402 20.1027 5.31457 25.0739 4.70382C29.3613 4.14539 33.6543 3.61256 37.9559 3.18659C42.6807 2.71847 47.4126 2.31357 52.1572 2.00651C59.3204 1.54291 66.4878 1.09136 73.6595 0.802359C82.0326 0.486269 90.4185 0.290594 98.8029 0.135559C111.398 -0.0992515 123.995 -0.0194763 136.588 0.30113C143.439 0.472722 150.29 0.701511 157.135 1.02663C163.636 1.3367 170.133 1.75966 176.628 2.23079C181.426 2.57548 186.222 3.01198 191.009 3.50569C198.252 4.25828 205.463 5.19602 212.604 6.69218C215.668 7.27057 218.677 8.13491 221.598 9.27509C222.278 9.56248 222.942 9.89219 223.586 10.2625C224.152 10.5305 224.659 10.9207 225.075 11.4082C225.49 11.8957 225.806 12.4698 226 13.0938L225.996 13.9081ZM113.043 25.8563C113.043 25.8142 113.043 25.772 113.043 25.7299C115.326 25.7299 117.611 25.7404 119.895 25.7299C133.538 25.6546 147.174 25.325 160.795 24.5694C166.447 24.2563 172.102 23.9522 177.744 23.4811C184.214 22.9407 190.667 22.2679 197.13 21.559C203.13 20.903 209.092 19.898 214.988 18.5486C217.675 17.9861 220.287 17.0814 222.769 15.8543C223.282 15.5915 223.757 15.2546 224.182 14.8533C224.386 14.6967 224.552 14.4912 224.666 14.2535C224.781 14.0158 224.841 13.7527 224.841 13.4859C224.841 13.219 224.781 12.956 224.666 12.7183C224.552 12.4806 224.386 12.275 224.182 12.1184C223.804 11.7382 223.369 11.4273 222.894 11.1987C221.528 10.5486 220.131 9.97581 218.708 9.48281C213.891 8.04272 208.976 7.00448 204.006 6.37759C199.583 5.72585 195.143 5.19 190.7 4.69479C186.776 4.25678 182.842 3.90306 178.913 3.58847C174.683 3.25131 170.451 2.96281 166.215 2.72299C160.954 2.42195 155.689 2.14499 150.423 1.93276C145.288 1.73207 140.151 1.58155 135.011 1.4812C127.632 1.35477 120.255 1.20425 112.882 1.24188C102.505 1.3081 92.1297 1.52184 81.7542 1.72203C77.8233 1.79729 73.8938 1.98394 69.9671 2.17359C65.9084 2.36475 61.8525 2.59956 57.7966 2.84641C54.5558 3.04209 51.3151 3.24378 48.0786 3.51321C43.7216 3.87747 39.3647 4.26581 35.0134 4.71737C31.2657 5.11323 27.5165 5.53017 23.7943 6.10666C19.683 6.74486 15.5931 7.52606 11.5031 8.33736C8.62683 8.87154 5.83214 9.81637 3.1953 11.146C2.61552 11.4517 2.08687 11.856 1.63031 12.3427C1.47554 12.4875 1.35159 12.6655 1.2667 12.8649C1.1818 13.0643 1.13789 13.2806 1.13789 13.4994C1.13789 13.7182 1.1818 13.9345 1.2667 14.1339C1.35159 14.3334 1.47554 14.5114 1.63031 14.6562C2.0531 15.1084 2.5411 15.4864 3.07601 15.776C5.21472 16.8846 7.47208 17.715 9.79892 18.2491C16.1125 19.7591 22.5062 20.8649 28.9452 21.5605C34.1002 22.1475 39.2582 22.73 44.4246 23.168C50.4072 23.6698 56.3968 24.0847 62.3936 24.4128C69.6604 24.8027 76.9329 25.1443 84.2054 25.3385C93.8126 25.5944 103.424 25.6877 113.034 25.8503" fill="white"/>
<path d="M108.189 14.9154C108.189 14.2366 108.153 13.6164 108.199 13.0053C108.244 12.3942 108.717 12.0706 109.41 12.0676C110.928 12.0676 112.445 12.0676 113.963 12.0676C114.991 12.0676 116.019 12.06 117.046 12.0676C117.247 12.0418 117.45 12.0642 117.641 12.1332C117.833 12.2022 118.007 12.316 118.151 12.4661C118.295 12.6162 118.405 12.7987 118.474 13.0002C118.542 13.2017 118.567 13.417 118.546 13.63C118.559 14.664 118.563 15.6981 118.546 16.7322C118.561 17.1184 118.499 17.5037 118.366 17.8634C118.233 18.2232 118.03 18.5495 117.771 18.8216C117.512 19.0936 117.202 19.3055 116.861 19.4436C116.521 19.5817 116.156 19.643 115.792 19.6236C111.55 19.6372 107.307 19.6447 103.065 19.6236C102.456 19.6464 101.849 19.535 101.282 19.2966C100.715 19.0581 100.201 18.6978 99.7728 18.2382C99.3442 17.7787 99.0101 17.23 98.7917 16.6267C98.5732 16.0235 98.4751 15.3787 98.5035 14.7333C98.4566 13.547 98.4917 12.3588 98.6086 11.178C98.7643 10.1335 99.2627 9.18068 100.016 8.48738C100.769 7.79408 101.729 7.40474 102.727 7.38792C106.218 7.33374 109.71 7.36535 113.202 7.36083C114.442 7.36083 115.683 7.36083 116.923 7.36083C117.802 7.36083 118.178 7.76723 118.185 8.68088C118.185 9.16104 118.185 9.6412 118.185 10.1861H103.287C102.997 10.1382 102.701 10.1638 102.423 10.2606C102.145 10.3574 101.892 10.5228 101.686 10.7431C101.479 10.9634 101.325 11.2324 101.236 11.528C101.147 11.8237 101.125 12.1375 101.172 12.4439C101.172 13.219 101.163 13.9957 101.172 14.7709C101.154 15.0442 101.192 15.3183 101.283 15.5747C101.375 15.831 101.517 16.0635 101.7 16.2565C101.884 16.4494 102.104 16.5982 102.347 16.6927C102.59 16.7873 102.848 16.8254 103.106 16.8044C107.202 16.8044 111.298 16.8044 115.393 16.8044C115.723 16.8044 116.089 16.7773 116.146 16.398C116.199 15.9647 116.17 15.5244 116.059 15.1035C116.031 14.9876 115.633 14.9244 115.403 14.9229C113.183 14.9109 110.964 14.9154 108.746 14.9154H108.189Z" fill="white"/>
<path d="M147.264 19.6031H144.61V17.0322H130.257V19.591H127.604C127.597 19.4149 127.584 19.2479 127.584 19.0808C127.584 16.7041 127.584 14.3259 127.584 11.9492C127.559 11.3467 127.65 10.7451 127.854 10.1819C128.057 9.61859 128.368 9.10574 128.766 8.67522C129.165 8.2447 129.642 7.90574 130.17 7.67944C130.697 7.45313 131.263 7.34434 131.832 7.35982C135.552 7.3257 139.271 7.3257 142.99 7.35982C143.563 7.34058 144.133 7.4473 144.665 7.67325C145.196 7.89919 145.678 8.23947 146.08 8.67262C146.482 9.10577 146.794 9.6224 146.998 10.19C147.202 10.7575 147.293 11.3637 147.264 11.9702C147.264 14.3469 147.264 16.7252 147.264 19.1019V19.6031ZM144.528 14.1212C144.554 14.069 144.572 14.0132 144.583 13.9556C144.583 13.2843 144.6 12.6115 144.592 11.9401C144.61 11.7018 144.578 11.4622 144.5 11.2382C144.421 11.0142 144.297 10.8113 144.136 10.6438C143.975 10.4762 143.781 10.3482 143.568 10.2687C143.356 10.1892 143.129 10.1601 142.905 10.1836C141.306 10.1836 139.707 10.1836 138.107 10.1836C136.036 10.1836 133.964 10.1836 131.892 10.1836C131.53 10.1397 131.167 10.2445 130.876 10.4764C130.585 10.7083 130.39 11.0496 130.329 11.4299C130.278 12.326 130.271 13.2243 130.308 14.1212H144.528Z" fill="white"/>
<path d="M89.1015 19.6016H86.4444V17.0337H72.0897V19.585H69.444C69.4355 19.4089 69.4227 19.2418 69.4213 19.0748C69.4213 16.6986 69.4213 14.3219 69.4213 11.9447C69.3954 11.3427 69.4867 10.7415 69.6897 10.1786C69.8927 9.61564 70.2029 9.1031 70.6011 8.67291C70.9992 8.24272 71.4767 7.9041 72.0038 7.67818C72.5309 7.45226 73.0963 7.34389 73.6647 7.35982C77.3835 7.3257 81.1028 7.3257 84.8226 7.35982C85.3954 7.34025 85.9657 7.44652 86.4978 7.67196C87.0299 7.8974 87.5122 8.23712 87.9144 8.66975C88.3166 9.10238 88.6299 9.61855 88.8347 10.1858C89.0395 10.753 89.1313 11.3591 89.1043 11.9657C89.1043 14.3424 89.1043 16.7191 89.1043 19.0973V19.6001M86.4061 14.1151C86.4061 13.2482 86.4473 12.4384 86.3947 11.6361C86.3734 11.2332 86.2038 10.8553 85.9222 10.5837C85.6407 10.312 85.2698 10.1684 84.8894 10.1836C81.1374 10.1756 77.3854 10.1756 73.6334 10.1836C73.2693 10.1596 72.9105 10.285 72.6313 10.5339C72.3521 10.7827 72.1739 11.1359 72.1338 11.5202C72.0571 12.3676 72.1167 13.2286 72.1167 14.1151H86.4061Z" fill="white"/>
<path d="M42.9998 16.9966V19.5946H40.3584V7.38899C40.5189 7.37846 40.6609 7.3604 40.8029 7.3604C45.6484 7.3604 50.4925 7.34986 55.3365 7.3604C56.5418 7.36319 57.6966 7.87333 58.547 8.7786C59.3974 9.68387 59.8737 10.9101 59.871 12.1876C59.8684 13.465 59.3871 14.689 58.533 15.5903C57.6789 16.4916 56.5219 16.9964 55.3167 16.9936C51.4184 17.0072 47.5201 16.9936 43.6219 16.9936H42.9998M43.0268 14.1473H53.6068C54.2743 14.1473 54.9446 14.1669 55.6106 14.1277C56.0544 14.1011 56.4734 13.9023 56.7878 13.5691C57.1021 13.236 57.2897 12.7919 57.3148 12.3215C57.3373 12.0409 57.3028 11.7585 57.2136 11.4933C57.1243 11.228 56.9824 10.9862 56.7975 10.784C56.6126 10.5819 56.3888 10.4241 56.1415 10.3214C55.8941 10.2187 55.6288 10.1734 55.3635 10.1887C51.3872 10.1826 47.4084 10.1826 43.4273 10.1887C43.3023 10.1887 43.1759 10.2037 43.0311 10.2127L43.0268 14.1473Z" fill="white"/>
<path d="M159.344 19.604H156.667V19.0787C156.667 16.4416 156.667 13.8055 156.667 11.1704C156.641 10.4909 156.8 9.81788 157.126 9.23195C157.452 8.64602 157.93 8.17204 158.503 7.86676C159.077 7.56148 159.721 7.43786 160.359 7.51069C160.997 7.58353 161.601 7.84973 162.1 8.27743C165.594 11.0229 169.09 13.7644 172.588 16.5018C172.768 16.6667 172.995 16.7641 173.233 16.7788C173.643 16.7351 173.681 16.3603 173.68 15.99C173.68 13.3379 173.68 10.6847 173.68 8.03058V7.39087H176.353V7.91167C176.353 10.5488 176.353 13.1798 176.353 15.8199C176.397 16.506 176.246 17.1904 175.919 17.784C175.591 18.3776 175.103 18.8529 174.516 19.1479C173.94 19.4669 173.287 19.5964 172.641 19.5197C171.995 19.443 171.385 19.1637 170.889 18.7174C167.438 15.9991 163.983 13.2857 160.522 10.5774C160.454 10.5037 160.374 10.4427 160.287 10.3967C160.084 10.335 159.815 10.2041 159.676 10.2899C159.584 10.3609 159.508 10.4521 159.452 10.5574C159.397 10.6626 159.364 10.7793 159.355 10.8995C159.322 11.9531 159.339 13.0067 159.339 14.0513V19.604" fill="white"/>
<path d="M188.404 7.38745H185.779V19.5991H188.404V7.38745Z" fill="white"/>
</g>
</g>
<defs>
<clipPath id="clip0_343_1607">
<rect width="226" height="27" fill="white"/>
</clipPath>
<clipPath id="clip1_343_1607">
<rect width="226" height="27" fill="white"/>
</clipPath>
</defs>
</svg>
