<svg width="137" height="62" viewBox="0 0 137 62" fill="none" xmlns="http://www.w3.org/2000/svg">
<path d="M12.9305 46.2018L13.0159 46.2114C13.239 46.5122 13.041 50.5782 13.1205 51.2363C13.1569 51.5385 13.1728 52.9973 12.9619 53.2177C12.7175 53.3214 12.3954 53.2739 12.1232 53.2575L12.0816 53.2442C11.8126 52.9536 11.9259 51.1001 11.9282 50.5711C11.9385 49.1156 11.9306 47.6601 11.9046 46.2048C12.2465 46.2115 12.5886 46.2105 12.9305 46.2018Z" fill="white"/>
<path d="M26.5761 46.1815C26.7884 46.2266 27.0641 46.2533 27.2847 46.2807C27.7756 46.7142 30.171 50.1459 30.5024 50.7703C31.3724 49.506 32.5853 47.2732 33.4689 46.2927L34.464 46.2373C34.439 47.014 34.4694 52.9238 34.3582 53.1351C34.16 53.2589 33.7608 53.2872 33.5358 53.2576C33.4514 53.1688 33.3909 53.0323 33.3889 52.9094C33.3651 51.4982 33.4266 50.0833 33.3981 48.6705C33.3682 48.4822 33.463 47.8256 33.4924 47.6019C32.6711 48.8313 31.4993 51.2725 30.4396 52.2137C29.5678 51.1761 28.8233 49.9254 28.0607 48.8008C27.8552 48.4977 27.7516 48.1486 27.5876 47.9266C27.447 47.946 27.4413 48.0505 27.442 48.1826C27.4465 48.9816 27.7406 52.6888 27.2552 53.159C27.118 53.292 27.0115 53.2896 26.8331 53.3029C26.7462 53.2599 26.5869 53.1935 26.5841 53.0807C26.5625 52.2466 26.3501 46.5727 26.5761 46.1815Z" fill="white"/>
<path d="M47.8401 46.2241C48.5886 46.191 49.6302 46.2634 50.4163 46.2608C51.4693 46.2575 52.7101 46.1973 53.7363 46.2999L53.7652 46.324C53.9066 46.4443 54.1608 46.6327 54.2227 46.8005C54.5638 47.7244 54.4827 49.3367 54.1846 50.246C53.3061 50.5272 52.3079 50.4711 51.3894 50.4622C50.6142 50.4659 49.8388 50.4656 49.0635 50.4613C49.0906 51.032 49.2395 52.7115 48.9506 53.124C48.7595 53.2236 48.0809 53.2496 47.823 53.269C47.7391 52.0977 47.8741 50.3184 47.8319 49.09C47.8149 48.5954 47.7934 46.5914 47.8401 46.2241ZM49.0772 49.571C50.3244 49.5064 52.0912 49.595 53.2271 49.3842C53.3402 49.0343 53.4389 47.2827 52.9445 47.231C51.6778 47.0987 50.3539 47.2453 49.0721 47.2035C49.1107 48.0597 49.1172 48.7029 49.0772 49.571Z" fill="white"/>
<path d="M68.5763 46.3389C69.3689 46.2559 74.3999 46.173 74.7776 46.4657C75.1427 46.7484 75.2403 47.3921 75.2622 47.8211C75.3087 48.7317 75.47 52.3573 74.9363 52.9711C74.6847 53.2604 73.6279 53.2111 73.2509 53.2209C71.8947 53.0702 69.651 53.4106 68.2942 53.0528C68.0751 52.995 67.9722 52.7315 67.8979 52.5291C67.7724 51.8259 67.6655 47.6736 67.9955 46.8077C68.0267 46.7262 68.4581 46.4228 68.5763 46.3389ZM68.9082 52.2133C69.7944 52.1046 73.2861 52.1426 74.1709 52.2586C74.151 50.7586 74.1026 48.7909 74.1855 47.3067C72.5001 47.1979 70.6421 47.258 68.9454 47.2496C68.9162 48.8063 69.0051 50.6982 68.9082 52.2133Z" fill="white"/>
<path d="M93.3588 46.2248C93.7199 46.2572 94.0817 46.2844 94.4441 46.3063C95.3994 46.904 95.2533 47.9038 95.262 48.8982C95.2779 50.7106 94.1434 50.5124 92.8775 50.4527C93.4139 50.8553 95.2819 52.6805 95.8574 53.2075C95.1982 53.1743 94.3339 53.2802 93.7943 52.8138C93.001 52.1279 92.4241 51.1566 91.5678 50.526L91.5399 50.5057C91.0248 50.4688 90.3338 50.4757 89.81 50.4696C89.8147 51.3158 89.8539 52.2282 89.7735 53.0623C89.7483 53.3277 89.0075 53.2897 88.8475 53.1566C88.6709 53.0147 88.7234 52.6347 88.7114 52.4229C88.6052 50.4719 88.8867 48.1525 88.6523 46.2349C89.2657 46.2324 89.9056 46.2541 90.521 46.266C91.3162 46.2769 92.5808 46.3172 93.3588 46.2248ZM89.8134 49.4976C91.1563 49.4272 92.778 49.5633 94.0558 49.434C94.0671 48.9796 94.1295 47.7179 93.9104 47.3794C93.4112 47.0898 90.5635 47.2189 89.8021 47.2274C89.8293 47.9838 89.8326 48.7409 89.8134 49.4976Z" fill="white"/>
<path d="M110.233 46.2601C112.075 46.1657 114.37 46.2387 116.226 46.2654C116.198 46.6221 116.206 46.8675 116.218 47.2205L113.321 47.219C113.353 48.5888 113.324 50.0488 113.32 51.4252C113.283 52.8373 113.808 53.1956 112.141 53.2713C112.09 52.018 112.166 50.7102 112.139 49.4509C112.124 48.7373 112.131 47.9263 112.215 47.221C111.26 47.2546 110.158 47.2267 109.188 47.2299L109.2 46.3059L110.233 46.2601Z" fill="white"/>
<path d="M129.846 47.356C130.17 45.9793 131.256 46.2982 132.421 46.2865C133.376 46.277 135.039 46.132 135.851 46.5653C136.321 47.0803 136.461 48.1515 135.592 48.2144C135.173 47.9997 135.256 47.7784 135.233 47.3449C133.709 47.2093 132.291 47.2455 130.764 47.2568C130.772 47.878 130.796 48.5627 130.772 49.1784C131.994 49.1927 135.003 49.0524 135.981 49.3648C136.353 50.2739 136.49 51.5762 136.181 52.5315C136.022 53.0212 135.691 53.116 135.225 53.2046C134.215 53.2598 132.597 53.2024 131.532 53.2095C131.502 53.2107 131.472 53.2115 131.442 53.2119C129.824 53.2377 129.51 52.9737 129.562 51.3621C129.893 51.2425 130.156 51.0155 130.468 51.2196C130.592 51.4555 130.59 51.9323 130.608 52.2174C131.428 52.0997 134.453 52.1272 135.287 52.2629C135.315 51.6145 135.292 50.8469 135.288 50.19C134.119 50.4004 131.925 50.2358 130.696 50.1686C129.678 50.1129 129.663 48.1175 129.846 47.356Z" fill="white"/>
<path d="M125.277 58.1248C127.411 57.9853 127.692 60.575 126.31 61.643C125.779 62.0533 124.595 61.9572 124.151 61.4778C124.032 61.3495 124.156 61.1248 124.207 60.9924C124.963 61.1564 125.899 61.7013 126.39 60.6324C126.248 60.2659 123.883 60.9904 123.852 59.754C123.822 58.5362 124.234 58.2574 125.277 58.1248ZM125.637 60.0364C126.784 59.7034 126.477 58.7279 125.244 58.7224C124.04 59.2912 124.563 60.0945 125.637 60.0364Z" fill="white" fill-opacity="0.38"/>
<path d="M110.802 58.183C111.304 58.1512 112.87 58.1709 113.046 58.7139C112.958 58.9785 113.011 58.9404 112.822 59.1047C112.189 59.2629 111.59 58.2986 110.316 59.169L110.288 59.3535C110.978 59.9032 113.471 59.3435 113.151 60.9551C113.054 61.442 112.554 61.6698 112.165 61.909C111.541 62.0341 110.168 62.0605 109.815 61.4349C109.822 61.1838 109.783 61.2141 109.907 61.0348C110.202 60.9728 110.932 61.4067 111.388 61.4081C111.891 61.4098 112.472 61.1717 112.497 60.5894C112.204 60.2445 110.503 60.6388 109.99 60.0157C109.703 59.6665 109.755 59.4678 109.763 59.0129C110.099 58.4671 110.193 58.3831 110.802 58.183Z" fill="white" fill-opacity="0.38"/>
<path d="M105.127 59.146C105.22 59.0935 105.177 59.1225 105.233 58.9913C105.182 58.8798 105.05 58.6262 105.154 58.5409C105.611 58.1632 107.621 58.1539 108.016 58.4897L107.996 58.5949C107.541 58.8642 106.412 58.8438 105.845 58.8631C105.633 59.2817 105.962 60.027 105.775 60.3466L105.825 60.4855L105.893 60.5713L105.902 60.7098L105.887 60.7749C105.846 60.968 105.819 61.0481 105.88 61.2413C106.491 61.7183 108.244 61.0598 108.384 61.7634C108.063 62.1032 105.616 61.9792 105.069 61.9726C105.09 61.7522 105.181 61.2132 105.09 61.0523C105.112 60.2914 105.223 59.9306 105.127 59.146Z" fill="white" fill-opacity="0.38"/>
<path d="M128.119 58.1752C128.828 58.2124 130.993 57.9513 131.344 58.4649C131.385 58.8347 129.959 61.193 129.644 61.8085C129.365 61.9183 129.184 61.9882 128.909 61.8492C128.838 61.4617 130.169 59.3785 130.479 58.8793C129.843 58.8498 128.493 59.0153 128.124 58.7067C128.017 58.4348 128.053 58.5034 128.119 58.1752Z" fill="white" fill-opacity="0.38"/>
<path d="M136.024 58.1458L136.1 58.2087C136.311 58.8332 135.256 60.2477 134.999 60.8432C134.828 61.2377 134.242 62.1306 133.709 61.9073L133.693 61.7632C133.848 61.4466 134.173 60.6823 134.378 60.4567C134.698 59.9298 135.015 59.4002 135.327 58.868C134.696 58.8854 133.186 59.1132 132.896 58.5737C132.92 58.306 132.877 58.3744 133.019 58.2201C133.592 58.1264 135.301 58.1663 136.024 58.1458Z" fill="white" fill-opacity="0.38"/>
<path d="M114.635 58.1786C115.528 58.2255 117.005 58.053 117.909 58.208C117.995 58.2229 118.024 58.3736 118.055 58.4627C117.954 59.0263 117.167 58.8689 116.681 58.8649C116.693 59.4588 116.693 60.0528 116.68 60.6466C116.642 61.1377 116.65 61.4616 116.669 61.9555L115.975 61.9674C115.954 60.9312 115.948 59.8947 115.956 58.8582C115.546 58.8525 114.971 58.9785 114.665 58.74C114.542 58.4685 114.587 58.5192 114.635 58.1786Z" fill="white" fill-opacity="0.38"/>
<path d="M122.044 58.084C122.219 58.1244 122.275 58.1185 122.382 58.2477C122.428 58.9021 122.516 61.1704 122.358 61.7493C122.177 61.902 121.916 61.8872 121.67 61.9036C121.709 60.954 121.721 60.1767 121.702 59.2252C121.468 59.0288 121.366 58.9936 121.381 58.6795C121.502 58.452 121.827 58.2456 122.044 58.084Z" fill="white" fill-opacity="0.38"/>
<path d="M105.825 60.4855L105.775 60.3466C105.962 60.027 105.633 59.2816 105.845 58.8631C105.862 59.2042 105.88 59.4917 105.919 59.8337C106.083 59.8652 107.281 60.0115 107.288 60.0155C106.725 60.265 106.089 60.2002 105.881 60.3214L105.825 60.4855Z" fill="white" fill-opacity="0.38"/>
<path d="M46.4499 4.90297C47.4506 4.90263 47.5989 5.26438 47.9265 6.12971C47.4803 7.47246 45.8439 8.90657 44.8882 10.0145L31.3736 25.4736L23.2128 34.7717C21.9636 36.2133 20.7457 37.6914 19.4953 39.1325C19.3079 39.3485 19.0696 39.4313 18.8055 39.5381C18.0744 39.5145 17.6739 38.8854 17.3708 38.3134C17.4486 36.8993 18.2861 36.4331 19.1789 35.4155L21.5562 32.6968L29.9342 23.2372C35.0893 17.4075 40.1859 11.5318 45.3629 5.72159C45.7783 5.25544 45.8477 5.1367 46.4499 4.90297Z" fill="white"/>
<path d="M80.8068 26.4028C79.9622 26.7766 78.9435 27.0964 78.1316 27.4142C76.934 27.8831 71.6383 30.194 71.6642 31.4198C72.6604 31.9842 75.8682 29.9802 76.6978 30.7261C78.2436 32.1149 74.9225 33.2666 74.0117 33.7598C73.1159 34.2449 66.3646 38.264 67.956 39.4286C68.871 39.5967 70.6039 38.7537 71.4471 38.3564C77.1129 35.6856 82.1362 32.1922 86.7013 27.9038C88.85 25.885 90.8253 23.5204 93.4691 22.1965C96.3416 20.6766 97.5576 23.0917 94.8593 24.2399C94.1061 24.4868 93.4848 24.6385 92.9126 25.2054C91.5068 26.5864 90.613 30.1407 89.8947 32.0458C89.3123 33.5908 88.8814 34.6536 88.1625 36.1663L87.9658 36.5183C86.6713 38.5746 85.1275 40.831 82.4113 40.9185C81.5715 40.9456 80.7412 40.6892 80.126 40.0905C79.0145 39.0079 79.3033 37.1247 80.4258 36.1582C80.9864 35.6921 83.8268 33.2899 84.5034 34.0706C84.5983 34.3817 84.5519 34.5288 84.4952 34.8543C84.0473 35.1834 81.0888 37.4657 81.9464 38.1131C82.3014 38.1662 82.8155 38.0575 83.1132 37.8988C86.4248 36.1302 88.8405 30.3757 90.0838 27.1229C87.283 29.344 84.7656 31.9844 81.8364 34.0414C81.2151 34.4778 80.3814 34.8069 79.7498 35.2468C77.3034 36.952 74.7423 38.4443 72.0814 39.7862C70.5615 40.5547 66.3185 42.4945 65.0429 40.2106C64.6769 39.5552 65.0333 38.5944 65.2916 37.9159C63.9815 38.7304 61.8919 40.3041 60.1872 39.9096C59.1891 39.6786 59.109 37.8244 59.4482 37.0362C60.5842 34.3967 63.5675 31.702 66.1167 30.4637C65.932 30.4856 65.7645 30.5234 65.5878 30.5809C64.4669 30.9462 63.3489 30.9762 62.1847 31.0058C61.0921 31.7867 55.7261 37.043 54.4343 35.6286C54.2346 35.032 54.7716 34.7382 55.2146 34.4775C56.6824 33.6137 58.041 32.5522 59.3611 31.4795C60.0169 30.9467 60.7079 30.1924 61.3989 29.7466C61.4378 29.2006 61.4606 28.5479 61.7669 28.0554C63.1489 25.8321 65.3575 23.7626 67.8625 22.8893C68.0277 22.8275 68.4497 22.7984 68.5958 22.9343C69.2929 23.5848 68.5541 24.4526 68.1486 24.8587C67.1455 25.863 66.1205 26.4389 65.0649 27.3385C64.7404 27.615 64.3938 28.1714 64.1596 28.5143C66.1195 28.1006 67.2507 27.9738 69.0055 26.8541C69.5858 26.5961 70.3936 26.0188 70.7623 26.8605C71.2689 28.018 69.7538 28.7677 69.0758 29.6053C67.0957 32.0519 63.202 34.9947 62.1208 37.989C64.7044 36.6113 67.207 35.0469 69.7197 33.5454C69.9197 33.4257 70.1894 33.3013 70.4011 33.1913C70.5069 33.15 70.9159 32.9141 71.0388 32.847C70.6838 32.8226 70.2925 32.7685 69.9368 32.7272C69.2007 32.3272 68.5528 31.9654 68.8757 30.9888C69.6575 28.6229 72.4515 27.2625 74.5101 26.169C75.2441 25.7791 76.0211 25.5729 76.7968 25.143C77.4263 25.0394 78.2538 24.6064 78.9994 24.4575C79.5184 24.2777 80.4374 24.0337 80.987 23.9816C82.9023 23.8003 84.5847 23.3542 84.9144 25.7502C84.8776 25.8454 84.7594 26.1347 84.7123 26.2019C84.1531 26.9982 81.9252 28.0519 81.0342 28.2585C79.8632 27.9105 80.1028 27.1002 80.8068 26.4028Z" fill="white"/>
<path d="M2.51801 12.175C3.30099 11.1353 4.79785 10.0542 5.89531 9.34283C13.6648 4.30647 23.7795 1.8305 32.8875 0.597107C34.7215 0.359072 36.5641 0.192487 38.4111 0.0977464C46.6708 -0.355006 59.7851 0.639701 66.5359 5.74523C68.6846 7.37046 70.0113 9.50779 70.3663 12.1745C70.6975 14.6643 69.7293 17.0653 68.2326 19.0107C65.5689 22.4726 61.3304 24.4552 57.2721 25.7972C56.2741 26.1272 55.1811 26.2372 54.2121 26.6407C54.1054 26.6738 53.8478 26.7443 53.7652 26.7948C48.8773 27.6241 44.4835 28.3183 39.5219 28.1076C37.306 28.0136 35.7014 28.3052 33.6395 27.2043C33.5796 27.1074 33.523 27.0084 33.4699 26.9076C33.2663 26.5119 33.4064 25.8531 33.8711 25.8997C36.103 26.1238 38.3743 26.2738 40.6215 26.2517C43.6426 26.2219 46.6657 26.0931 49.6505 25.6191C51.0808 25.3919 52.5004 24.985 53.9053 24.6518C56.626 24.0293 59.6298 23.1119 62.0259 21.6447C63.7547 20.5862 66.1895 18.4482 66.878 16.5008C67.6448 14.3331 67.4071 12.193 66.482 10.1385C65.8203 8.59959 64.027 6.97654 62.6109 6.11353C57.2601 2.62982 48.202 1.97817 41.939 1.96746C41.3066 1.96638 40.5448 1.87182 39.9579 1.88103C39.0194 1.89578 37.9548 1.94281 37.0134 2.00315C33.4883 2.24726 29.9853 2.74375 26.5312 3.4888C20.1789 4.82957 13.2252 6.92219 7.77271 10.5216C7.12098 10.9519 6.48387 11.6283 5.81631 12.2074C4.34593 13.4827 2.72202 15.4954 3.05069 17.5888C3.09373 17.863 3.46453 18.7654 3.74297 18.9269C4.2619 19.1303 6.00579 18.5678 6.29863 19.2416C6.48128 19.9845 5.66412 20.6271 5.10812 20.8306C3.20975 21.5257 0.905934 20.5709 0.201774 18.6459C-0.483289 16.7732 0.687086 14.0316 2.04501 12.6994L2.51801 12.175Z" fill="white"/>
<path d="M117.763 24.7466C118.982 24.5632 120.255 24.276 121.334 25.0794C121.354 25.0941 121.373 25.1089 121.393 25.124C122.611 26.5476 121.804 27.2879 120.639 28.3743C119.971 28.9963 117.66 30.2247 116.874 29.5004C115.902 27.9164 119.068 27.6108 119.727 26.3786L119.688 26.2619C118.83 25.9458 114.836 28.0818 114.065 28.6451C113.476 29.0269 112.13 29.8569 111.701 30.3161C109.822 31.601 106.01 34.5284 105.369 36.9005C105.33 37.0435 105.365 37.0865 105.411 37.2168C106.911 38.0548 114.798 30.8485 117.929 30.8036L118.538 31.1202C119.115 32.1128 118.934 32.7044 118.219 33.6192C116.842 35.3785 115.252 36.9771 113.868 38.7274C113.358 39.4235 112.657 39.9544 112.094 40.6028C107.812 45.5312 103.263 50.228 99.0735 55.2365C98.7799 55.5874 98.2644 55.9471 98.0493 56.3218C98.6638 56.3353 99.6163 54.9552 100.191 55.5798C100.766 56.2037 100.038 56.8718 99.5207 57.2103C97.3966 58.5996 95.3789 60.0844 93.392 61.6649C92.8048 62.1322 92.1685 61.7767 91.8203 61.2039C91.2679 60.1487 92.6976 59.1331 93.2411 58.3965C95.112 55.8616 97.3242 53.6502 99.3931 51.2994L105.626 44.2797C107.837 41.7926 110.049 39.2627 112.301 36.8138C112.953 36.1041 113.567 35.4569 114.181 34.7033C114.509 34.381 114.937 33.9938 115.175 33.614L115.141 33.5604C114.798 33.7068 114.362 34.0871 114.01 34.3308C113.59 34.5462 112.647 35.2589 112.187 35.5631C110.099 36.9451 107.869 38.3846 105.42 39.0235C104.224 39.3356 103.555 39.1497 102.555 38.5377C102.527 38.4852 102.5 38.4324 102.474 38.3792C102.062 37.5384 102.209 37.0912 102.488 36.2696C101.534 36.9061 100.603 37.58 99.6068 38.1539C98.6495 38.7051 97.1317 39.5389 95.9818 39.2132C95.691 39.1306 95.4479 38.9674 95.3066 38.6942C95.0444 38.1847 95.1762 37.4428 95.3475 36.9255C96.1997 34.3459 100.849 29.5863 102.912 27.6243C103.379 27.1802 103.912 26.5243 104.485 26.246C104.773 26.1062 105.133 26.0454 105.438 26.1648C105.628 26.2389 105.789 26.3785 105.869 26.5678C106.022 26.9257 105.925 27.3688 105.727 27.6899C105.319 28.35 104.573 29.0118 104.041 29.5843C102.168 31.5981 98.7704 34.8665 97.7687 37.2906C99.2504 36.4967 100.664 35.7819 102.076 34.8412C102.836 34.3801 103.694 34.0429 104.304 33.3708C107.389 29.9682 110.981 26.9978 115.358 25.4287C115.973 25.2081 117.105 24.7632 117.763 24.7466Z" fill="white"/>
<path d="M113.119 9.27461C114.299 9.24095 114.185 10.3568 113.707 11.0478C112.691 12.5163 111.032 13.6818 110.103 15.2044C113.035 14.9088 116.256 15.1854 119.224 15.0434C119.845 15.0136 121.004 15.1355 121.648 15.1917C122.356 15.3214 125.916 14.9061 124.868 16.5426C124.564 17.018 121.544 16.8133 120.883 16.825C116.813 16.8968 112.676 16.6697 108.615 16.9341C107.056 18.4599 105.644 20.3582 104.257 22.0472C101.757 25.0917 99.1728 28.0837 96.7045 31.1522C95.4523 32.7088 94.069 34.4106 92.9847 36.0729C93.0537 36.1429 93.3719 36.4548 93.3609 36.5353C93.1848 37.8639 91.2641 39.5974 90.0726 40.0247C88.9576 39.7112 87.9799 39.2136 88.5678 37.8871C89.7756 35.8447 91.2313 33.895 92.7922 32.1165C92.9676 31.9165 93.1383 31.699 93.3063 31.4917L99.7648 23.6217L103.032 19.6863C103.745 18.8145 104.621 17.5795 105.463 16.8865C101.784 16.6595 97.9035 16.9791 94.1946 16.6752C92.1121 16.5046 89.6889 16.8959 87.6405 16.4336C87.0233 16.2943 87.2097 14.9032 88.014 15.0104C88.8375 14.9668 89.7715 14.9662 90.6523 14.9659L95.7466 15.0064C96.8998 15.0244 98.1145 14.9596 99.2466 14.9999C101.492 15.0796 103.659 14.983 105.899 15.2061C107.226 15.3382 107.739 14.1445 108.537 13.412C109.634 12.4058 111.642 9.51503 113.119 9.27461Z" fill="white"/>
<path d="M122.331 32.8471C121.199 32.7644 120.086 32.5657 120.166 31.1636C120.221 30.2142 120.919 29.3915 121.627 28.8179C124.604 26.4106 128.38 24.7899 132.112 23.9925C133.053 23.7976 134.265 23.83 135.185 23.8865C136.201 24.5431 136.546 25.494 135.822 26.5054C135.3 26.9365 132.931 28.2934 132.186 28.202C132.155 28.1983 131.968 28.1787 131.92 28.1751C131.432 27.9214 131.496 27.4614 131.493 26.9899C131.718 26.7823 132.006 26.5516 132.243 26.3505C129.117 27.611 125.594 28.6179 123.11 31.0097C122.985 31.129 122.894 31.2117 122.835 31.3758L122.891 31.4447C124.07 31.6882 125.867 30.8805 127.014 30.5035C128.277 30.0881 128.836 31.6254 127.979 32.3532C127.381 32.861 126.607 33.016 125.928 33.3752C124.245 34.2719 122.793 35.2653 121.266 36.4244C120.927 36.6824 117.966 38.8379 119.352 39.3667C120.103 39.6536 122.23 38.6215 123.048 38.2285C125.228 37.1811 127.417 35.8238 129.49 34.5678C130.525 33.9468 131.593 33.1712 132.704 32.763C132.936 32.8056 132.851 32.7614 133.02 32.938C133.166 33.3759 133.046 33.6889 132.897 34.1025C132.54 34.3901 131.832 34.7749 131.391 35.0506C130.463 35.6308 129.499 36.3318 128.541 36.8694C125.357 38.5881 121.339 41.6885 117.557 41.1814C116.225 41.003 116.065 39.2692 116.438 38.2451C117.323 35.8122 120.166 34.0256 122.331 32.8471Z" fill="white"/>
<path d="M110.267 19.6642C110.74 19.8452 110.973 20.6994 111.078 21.1412C110.736 22.3174 110.064 22.9845 108.831 23.0561C108.191 22.8588 108.151 22.351 107.961 21.7614C108.234 20.6044 109.051 19.7799 110.267 19.6642Z" fill="white"/>
<path d="M114.01 34.3308C114.362 34.0871 114.798 33.7068 115.141 33.5605L115.175 33.614C114.937 33.9939 114.509 34.3811 114.181 34.7034L114.01 34.3308Z" fill="white"/>
<path d="M69.937 32.7272C70.2927 32.7685 70.684 32.8226 71.039 32.847C70.9161 32.9141 70.5071 33.15 70.4013 33.1913C70.1869 32.983 70.0319 32.9747 69.937 32.7272Z" fill="white"/>
<path d="M65.0422 27.56L65.2425 27.5473C65.4235 27.6534 65.4823 27.6493 65.5767 27.8157C65.3468 27.923 65.2241 27.7166 65.0422 27.56Z" fill="#040204"/>
</svg>
